<svg width="72" height="72" viewBox="0 0 72 72" fill="none" xmlns="http://www.w3.org/2000/svg">
    <path d="M16.754 63.666c13.834 0 23.334 7.166 30 7.166S67.42 67 67.42 36.334c0-30.666-18.834-35.168-26.166-35.168-34.334 0-49 62.5-24.5 62.5z" fill="#EFF1FF"/>
    <path d="M14.75 9.5a1 1 0 1 1 2 0v2a1 1 0 1 1-2 0v-2zM8.25 15.5a1 1 0 0 1 1-1h2a1 1 0 1 1 0 2h-2a1 1 0 0 1-1-1z" fill="#A0AAEC"/>
    <path d="M13.5 35.5v17H19l4-14.772S20.084 35.5 13.5 35.5z" fill="#FE9172"/>
    <path d="M53.5 46c-2.596 0-5.61 1.256-8.5 2.142v-.862c0-1.9-1.34-3.54-3.2-3.92l-19.26-3.94-2.98 10.84c3.82 1.8 13.66 6.24 18.44 6.24 6 0 20.5-8 20.5-8s-1-2.5-5-2.5z" fill="#FE9172"/>
    <path d="M58.5 36.25v-17H53l-4 14.772s2.916 2.228 9.5 2.228z" fill="#fff"/>
    <path d="M18.5 25.75c2.596 0 5.61-1.256 8.5-2.142v.862c0 1.9 1.34 3.54 3.2 3.92l19.26 3.94 2.98-10.84c-3.82-1.8-13.66-6.24-18.44-6.24-6 0-20.5 8-20.5 8s1 2.5 5 2.5z" fill="#fff"/>
    <path d="M13.5 35.5v17H18V35.9a24.311 24.311 0 0 0-4.5-.4z" fill="#FE5E44"/>
    <path d="M49.5 47.28v.862c2.036-.624 4.13-1.424 6.098-1.846A7.327 7.327 0 0 0 53.5 46c-1.27 0-2.642.302-4.05.714.028.186.05.374.05.566zM24.06 50.26l2.74-9.968-4.26-.872-2.98 10.84c3.82 1.8 13.66 6.24 18.44 6.24.628 0 1.366-.104 2.154-.262-5.142-.966-12.822-4.436-16.094-5.978z" fill="#FE9172"/>
    <path d="m53.5 34.022 4-14.772H53l-4 14.772s2.916 2.228 9.5 2.228v-.4c-3.418-.64-5-1.828-5-1.828z" fill="#fff"/>
    <path d="M18 23.25s11.606-6.396 18.346-7.738c-.862-.162-1.66-.262-2.346-.262-6 0-20.5 8-20.5 8s1 2.5 5 2.5c.768 0 1.574-.118 2.402-.296C18.654 24.802 18 23.25 18 23.25zM34.7 28.39a4.004 4.004 0 0 1-3.2-3.92v-.863c-1.476.452-2.982 1-4.45 1.428a3.998 3.998 0 0 0 3.15 3.354l19.26 3.94.24-.872-15-3.068z" fill="#EFF1FF"/>
    <path d="M58.5 38c-7.01 0-10.276-2.434-10.41-2.538a1.5 1.5 0 0 1-.538-1.584l4-14.772A1.5 1.5 0 0 1 53 18h5.5a1.5 1.5 0 0 1 1.5 1.5v17a1.5 1.5 0 0 1-1.5 1.5zm-7.75-4.458c1.046.494 3.092 1.23 6.25 1.414V21h-2.852L50.75 33.542z" fill="#0E144A"/>
    <path d="M18.5 27.5c-4.958 0-6.336-3.302-6.392-3.444a1.497 1.497 0 0 1 .668-1.87C13.38 21.852 27.686 14 34 14c4.818 0 14.022 4 19.08 6.382l-1.28 2.714C43.582 19.222 37.092 17 34 17c-4.056 0-13.264 4.38-18.088 6.908.556.318 1.384.592 2.588.592 1.756 0 3.926-.722 6.026-1.424C26.852 22.3 29.258 21.5 31.5 21.5c4.216 0 9.778 2.006 10.012 2.09l-1.024 2.82c-.052-.02-5.304-1.91-8.988-1.91-1.756 0-3.926.722-6.026 1.424-2.326.776-4.73 1.576-6.974 1.576z" fill="#0E144A"/>
    <path d="m49.16 34.048-19.26-3.94a5.522 5.522 0 0 1-4.4-5.388v-.9h3v.9c0 1.182.842 2.212 2 2.452l19.26 3.94-.6 2.936zM19 54h-5.5a1.5 1.5 0 0 1-1.5-1.5v-17a1.5 1.5 0 0 1 1.5-1.5c7.01 0 10.276 2.434 10.41 2.538a1.5 1.5 0 0 1 .538 1.584l-4 14.772A1.5 1.5 0 0 1 19 54zm-4-3h2.852l3.396-12.542c-1.046-.494-3.092-1.23-6.25-1.414L15 51z" fill="#0E144A"/>
    <path d="M38 58c-4.818 0-14.022-4-19.08-6.382l1.28-2.714c8.22 3.876 14.708 6.098 17.8 6.098 4.056 0 13.264-4.38 18.088-6.908-.556-.318-1.384-.592-2.588-.592-1.756 0-3.926.722-6.026 1.424-2.326.776-4.732 1.576-6.974 1.576-4.216 0-9.778-2.006-10.012-2.09l1.024-2.82c.052.02 5.304 1.91 8.988 1.91 1.756 0 3.926-.722 6.026-1.424 2.326-.776 4.732-1.576 6.974-1.576 4.958 0 6.336 3.302 6.392 3.444a1.497 1.497 0 0 1-.668 1.87C58.62 50.148 44.314 58 38 58z" fill="#0E144A"/>
    <path d="M46.5 48.18h-3v-.9a2.516 2.516 0 0 0-2-2.453l-5.442-1.12.606-2.938 5.44 1.12a5.523 5.523 0 0 1 4.398 5.389l-.002.901zM22.257 40.904l.6-2.942 9.922 2.025-.6 2.942-9.922-2.025z" fill="#0E144A"/>
</svg>
