<svg width="140" height="16" viewBox="0 0 140 16" fill="none" xmlns="http://www.w3.org/2000/svg">
    <g clip-path="url(#6ck2d8iuna)">
        <path d="M78.23 7.915v.017c0 4.06 3.27 7.353 7.303 7.353h3.086v-1.908h-3.036c-3.03 0-5.48-2.505-5.414-5.572.063-2.98 2.552-5.333 5.514-5.333h2.936V.582h-3.106c-4.022 0-7.282 3.283-7.282 7.333zM133.229.583h-6.806v14.701h1.877V7.425c0-2.735 2.203-4.953 4.92-4.953 2.716 0 4.92 2.218 4.92 4.953v7.86h1.86V7.4C140 3.635 136.968.583 133.228.583zM99.257 5.51c0 .407-.143.75-.428 1.03-.285.28-.622.42-1.011.42h-4.339c-.403 0-.744-.14-1.022-.42a1.402 1.402 0 0 1-.418-1.03V.583h-1.877v14.701h1.877v-5.027c0-.406.14-.749.418-1.029.277-.28.618-.42 1.022-.42h4.339c.389 0 .727.14 1.01.42.286.281.429.624.429 1.03v5.026h1.856V.583h-1.856V5.51zM117.038.583v14.702h7.842V.583h-7.842zm3.921 6.98a2.544 2.544 0 0 1-2.534-2.552 2.543 2.543 0 0 1 2.534-2.553c1.4 0 2.533 1.142 2.533 2.553a2.542 2.542 0 0 1-2.533 2.553zm-10.793-6.198c-.248-.554-.598-.832-1.052-.832-.453 0-.805.278-1.052.832l-6.252 13.919h14.548l-6.192-13.92zm-1.052 11.505a2.543 2.543 0 0 1-2.533-2.553 2.543 2.543 0 0 1 2.533-2.553 2.544 2.544 0 0 1 2.534 2.553 2.544 2.544 0 0 1-2.534 2.553zm-85.36 2.576c2.211 0 4.382-.75 5.69-1.762V7.219h-5.992v2.797h2.774v1.702a4.936 4.936 0 0 1-2.473.628c-2.433 0-3.86-1.905-3.86-4.235 0-2.675 1.689-4.235 3.72-4.235 1.528 0 2.654.669 3.418 1.418l2.373-2.025C27.936 1.567 25.684.696 23.613.696c-4.564 0-7.239 3.242-7.239 7.415 0 4.68 3.257 7.335 7.38 7.335zm7.767-.162h3.136v-4.985c0-1.54.724-2.29 1.81-2.29 1.025 0 1.568.467 1.568 2.108v5.166h3.136V9.347c0-3.14-1.488-4.153-3.519-4.153-1.146 0-2.192.446-2.956 1.337h-.04V5.376H31.52v9.908zM48.07 5.194c-3.178 0-5.328 2.126-5.328 5.146 0 2.998 2.15 5.126 5.328 5.126 3.096 0 5.309-2.087 5.309-5.126-.001-3.06-2.213-5.147-5.31-5.147zm0 7.476c-1.247 0-2.151-1.013-2.151-2.33 0-1.357.885-2.33 2.15-2.33 1.227 0 2.133.953 2.133 2.33 0 1.358-.946 2.33-2.132 2.33zm10.232 2.796c2.694 0 4.001-1.337 4.001-3.181 0-1.945-1.186-2.513-3.358-3.262-.985-.344-1.347-.567-1.347-.871 0-.385.422-.547.785-.547.663 0 1.507.344 2.19 1.033l1.489-2.209c-1.147-.85-2.233-1.236-3.72-1.236-2.051 0-3.68 1.156-3.68 3.16 0 1.906 1.448 2.716 3.097 3.223 1.226.385 1.527.587 1.527.912 0 .364-.321.587-.944.587-.905 0-1.75-.364-2.574-1.114L54.3 14.007c1.086.973 2.454 1.46 4.002 1.46zM65.589 4.14c1.086 0 1.89-.79 1.89-1.824 0-.993-.804-1.783-1.89-1.783-1.086 0-1.87.81-1.87 1.783 0 1.034.784 1.824 1.87 1.824zM64.02 15.284h3.137V5.376H64.02v9.908zm8.655.182c2.695 0 4.002-1.337 4.002-3.181 0-1.945-1.186-2.513-3.358-3.262-.984-.344-1.347-.567-1.347-.871 0-.385.422-.547.784-.547.664 0 1.508.344 2.191 1.033l1.488-2.209c-1.146-.85-2.232-1.236-3.72-1.236-2.05 0-3.679 1.156-3.679 3.16 0 1.906 1.448 2.716 3.096 3.223 1.227.385 1.529.587 1.529.912 0 .364-.322.587-.946.587-.905 0-1.749-.364-2.573-1.114l-1.468 2.046c1.086.973 2.453 1.46 4.001 1.46zM2.44 7.095c0-.451.148-.863.402-1.19l2.7 2.721A1.923 1.923 0 0 1 2.44 7.093zm8.033 1.932c1.061.006 1.923-.863 1.923-1.937 0-.446-.147-.858-.402-1.19l-2.7 2.721c.322.257.73.406 1.18.406zm2.088-3.686c.397.48.636 1.086.636 1.76a2.734 2.734 0 0 1-2.724 2.743c-.664 0-1.27-.24-1.747-.64l-1.31 1.32-1.311-1.32c-.477.4-1.078.64-1.747.64A2.734 2.734 0 0 1 1.634 7.1c0-.67.239-1.28.636-1.76l-.613-.617-.584-.59A7.464 7.464 0 0 0 0 8.004c0 4.126 3.319 7.463 7.41 7.463 4.09 0 7.41-3.343 7.41-7.463a7.33 7.33 0 0 0-1.062-3.87L12.561 5.34zm.216-2.492a7.37 7.37 0 0 0-10.723 0c-.181.194-.357.4-.522.61L7.41 9.38l5.877-5.926a5.088 5.088 0 0 0-.51-.607zM7.415 7.997l-4.556-4.59a6.337 6.337 0 0 1 4.556-1.903c1.736 0 3.347.675 4.555 1.903l-4.555 4.59z" fill="#133629"/>
    </g>
    <defs>
        <clipPath id="6ck2d8iuna">
            <path fill="#fff" transform="translate(0 .533)" d="M0 0h140v14.933H0z"/>
        </clipPath>
    </defs>
</svg>
