<svg width="72" height="72" viewBox="0 0 72 72" fill="none" xmlns="http://www.w3.org/2000/svg">
    <path d="M55.246 8.334c-13.834 0-23.334-7.166-30-7.166S4.58 5 4.58 35.666c0 30.666 18.834 35.166 26.166 35.166 34.334.002 49-62.498 24.5-62.498z" fill="#EFF1FF"/>
    <path d="m31.554 69.644-6.01-6.01 2.12-2.122 4.95 4.95 4.95-4.95 2.121 2.122-6.01 6.01a1.5 1.5 0 0 1-2.121 0z" fill="#0E144A"/>
    <path d="M31.45 55.297h2.39v12.656h-2.39V55.297z" fill="#0E144A"/>
    <path d="M57.153 13.063a1 1 0 0 1 1.415-1.415l1.414 1.415a1 1 0 0 1-1.414 1.414l-1.415-1.414zM65.284 21.195a1 1 0 1 1 1.414-1.414l1.415 1.414a1 1 0 0 1-1.415 1.415l-1.414-1.415zM64.934 14.477a1 1 0 0 1 0-1.415l1.414-1.414a1 1 0 0 1 1.414 1.414l-1.414 1.415a1 1 0 0 1-1.414 0z" fill="#A0AAEC"/>
    <path d="M50.65 33.477a3.727 3.727 0 0 1 0-3.085l1.54-3.389a3.73 3.73 0 0 0-2.086-5.035l-3.485-1.308a3.73 3.73 0 0 1-2.182-2.182l-1.308-3.485a3.73 3.73 0 0 0-5.035-2.085l-3.389 1.54a3.727 3.727 0 0 1-3.085 0l-3.388-1.54a3.73 3.73 0 0 0-5.036 2.085l-1.307 3.485a3.73 3.73 0 0 1-2.182 2.182l-3.485 1.308a3.73 3.73 0 0 0-2.086 5.035l1.54 3.389c.446.98.446 2.104 0 3.085l-1.54 3.388a3.73 3.73 0 0 0 2.086 5.035l3.485 1.308a3.73 3.73 0 0 1 2.182 2.182l1.307 3.485a3.73 3.73 0 0 0 5.036 2.086l3.388-1.539a3.727 3.727 0 0 1 3.085 0l3.389 1.539a3.73 3.73 0 0 0 5.035-2.086l1.308-3.485a3.73 3.73 0 0 1 2.182-2.182l3.485-1.307a3.73 3.73 0 0 0 2.085-5.036l-1.54-3.388zm-13.928 1.23c-.924.611-1.407 1.707-1.407 2.816v2.452a.992.992 0 0 1-.993.993h-2.317c-.549 0-.993-.436-.993-1.275V37.48c0-1.098-.497-2.17-1.412-2.775a6.415 6.415 0 0 1-2.752-6.7c.487-2.398 2.396-4.378 4.78-4.928a6.464 6.464 0 0 1 7.99 6.276 6.407 6.407 0 0 1-2.896 5.353z" fill="#FE9172"/>
    <path d="M35.492 14.447c.98.446 2.106.446 3.085 0l2.95-1.34a3.707 3.707 0 0 0-3.435-.198l-2.994 1.361.394.177zM38.58 49.418a3.727 3.727 0 0 0-3.086 0l-.392.18 2.994 1.36a3.712 3.712 0 0 0 3.435-.197l-2.952-1.343z" fill="#FE9172"/>
    <path d="m27.07 48.871-1.308-3.484a3.73 3.73 0 0 0-2.182-2.182l-3.484-1.308a3.73 3.73 0 0 1-2.086-5.035l1.54-3.389a3.727 3.727 0 0 0 0-3.085l-1.54-3.389a3.73 3.73 0 0 1 2.086-5.035l3.484-1.308a3.73 3.73 0 0 0 2.183-2.182l1.307-3.484a3.684 3.684 0 0 1 1.6-1.886l-.436-.198a3.73 3.73 0 0 0-5.036 2.085l-1.308 3.485a3.73 3.73 0 0 1-2.181 2.182l-3.485 1.308a3.73 3.73 0 0 0-2.086 5.035l1.54 3.389c.446.98.446 2.104 0 3.085l-1.54 3.388a3.73 3.73 0 0 0 2.086 5.036l3.485 1.307a3.73 3.73 0 0 1 2.181 2.182l1.308 3.485a3.73 3.73 0 0 0 5.036 2.086l.437-.198a3.699 3.699 0 0 1-1.6-1.89z" fill="#FE5E44"/>
    <path d="M39.63 52.585a5.03 5.03 0 0 1-2.054-.442l-3.4-1.55a2.42 2.42 0 0 0-2.026 0l-3.39 1.547a5.043 5.043 0 0 1-4.006.053 4.968 4.968 0 0 1-2.764-2.877l-1.306-3.473a2.427 2.427 0 0 0-1.428-1.43l-3.48-1.31a4.963 4.963 0 0 1-2.872-2.76 5.048 5.048 0 0 1 .05-4l1.552-3.398a2.451 2.451 0 0 0 0-2.027l-1.549-3.39a5.055 5.055 0 0 1-.053-4.008 4.972 4.972 0 0 1 2.876-2.762l3.472-1.306a2.433 2.433 0 0 0 1.432-1.43l1.308-3.478a4.969 4.969 0 0 1 2.762-2.874 5.036 5.036 0 0 1 3.997.05l3.4 1.55a2.422 2.422 0 0 0 2.024 0l3.39-1.546a5.058 5.058 0 0 1 4.007-.054 4.968 4.968 0 0 1 2.763 2.878l1.306 3.472a2.427 2.427 0 0 0 1.429 1.43l3.48 1.31a4.963 4.963 0 0 1 2.872 2.76 5.048 5.048 0 0 1-.05 4l-1.553 3.398a2.45 2.45 0 0 0 0 2.027l1.55 3.39a5.055 5.055 0 0 1 .053 4.008 4.972 4.972 0 0 1-2.876 2.762l-3.473 1.306a2.433 2.433 0 0 0-1.431 1.43l-.133.367-2.426-.881.137-.379a5.016 5.016 0 0 1 2.948-2.956l3.473-1.306a2.414 2.414 0 0 0 1.4-1.343 2.431 2.431 0 0 0-.023-1.946l-1.544-3.381a5.014 5.014 0 0 1 0-4.172l1.549-3.39a2.424 2.424 0 0 0 .02-1.938 2.404 2.404 0 0 0-1.397-1.34l-3.48-1.31a5.003 5.003 0 0 1-2.939-2.942l-1.306-3.475a2.41 2.41 0 0 0-1.342-1.399 2.431 2.431 0 0 0-1.947.026l-3.381 1.544a5.033 5.033 0 0 1-4.168 0l-3.392-1.547a2.424 2.424 0 0 0-1.937-.023 2.413 2.413 0 0 0-1.343 1.398l-1.307 3.477a5.009 5.009 0 0 1-2.943 2.943l-3.473 1.306c-.642.24-1.139.716-1.4 1.343a2.432 2.432 0 0 0 .024 1.946l1.543 3.381a5.015 5.015 0 0 1 0 4.172l-1.549 3.39a2.424 2.424 0 0 0-.02 1.937 2.404 2.404 0 0 0 1.397 1.34l3.48 1.31a5.003 5.003 0 0 1 2.939 2.943l1.306 3.474a2.41 2.41 0 0 0 1.342 1.4 2.431 2.431 0 0 0 1.947-.026l3.381-1.544a5.033 5.033 0 0 1 4.168 0l3.392 1.547c.6.27 1.275.284 1.89.038a2.431 2.431 0 0 0 1.355-1.337l2.384.991a5.001 5.001 0 0 1-2.783 2.747c-.6.24-1.227.36-1.853.36z" fill="#0E144A"/>
    <circle cx="33.188" cy="31.953" r="10.828" fill="#fff"/>
    <path d="M33.755 37.901h-4.517v-2.58h4.517a1.076 1.076 0 0 0 0-2.152h-1.29a3.66 3.66 0 0 1-3.657-3.657 3.66 3.66 0 0 1 3.656-3.657h4.733v2.582h-4.733a1.076 1.076 0 0 0 0 2.15h1.291a3.66 3.66 0 0 1 3.657 3.658 3.66 3.66 0 0 1-3.657 3.656z" fill="#0E144A"/>
    <path d="M31.82 23.705h2.58v3.442h-2.58v-3.442zM31.82 36.611h2.58v3.442h-2.58v-3.442z" fill="#0E144A"/>
</svg>
