<svg width="72" height="72" viewBox="0 0 72 72" fill="none" xmlns="http://www.w3.org/2000/svg">
    <path d="M55.246 63.666c-13.834 0-23.334 7.166-30 7.166S4.58 67 4.58 36.334c0-30.666 18.834-35.168 26.166-35.168 34.334 0 49 62.5 24.5 62.5z" fill="#EFF1FF"/>
    <path d="M55 17a1 1 0 1 1 0-2h2a1 1 0 1 1 0 2h-2zM60.648 20.08a1 1 0 0 1 1.414-1.414l1.414 1.414a1 1 0 0 1-1.414 1.414l-1.414-1.414zM60.29 13.354a1 1 0 0 1 0-1.415l1.414-1.414a1 1 0 1 1 1.414 1.414l-1.414 1.415a1 1 0 0 1-1.414 0zM14 57c-1.654 0-3-1.346-3-3s1.346-3 3-3 3 1.346 3 3-1.346 3-3 3zm0-4c-.552 0-1 .45-1 1s.448 1 1 1 1-.45 1-1-.448-1-1-1z" fill="#A0AAEC"/>
    <path d="M31 13.5c-9.666 0-17.5 7.834-17.5 17.5 0 9.664 7.834 17.5 17.5 17.5S48.5 40.664 48.5 31c0-9.666-7.834-17.5-17.5-17.5zm0 26c-5.562 0-10.542-3.386-12.5-8.5 1.958-5.114 6.938-8.5 12.5-8.5s10.542 3.386 12.5 8.5c-1.958 5.114-6.938 8.5-12.5 8.5z" fill="#FE9172"/>
    <path d="M31 34.5a3.5 3.5 0 1 0 0-7 3.5 3.5 0 0 0 0 7z" fill="#FE9172"/>
    <path d="M31 22.5c-5.562 0-10.542 3.386-12.5 8.5 1.958 5.114 6.938 8.5 12.5 8.5s10.542-3.386 12.5-8.5c-1.958-5.114-6.938-8.5-12.5-8.5zm0 12a3.501 3.501 0 0 1-3.5-3.5c0-1.932 1.568-3.5 3.5-3.5s3.5 1.568 3.5 3.5-1.568 3.5-3.5 3.5z" fill="#fff"/>
    <path d="M18 31c0-8.9 6.65-16.232 15.25-17.34A17.757 17.757 0 0 0 31 13.5c-9.666 0-17.5 7.834-17.5 17.5 0 9.664 7.834 17.5 17.5 17.5.764 0 1.512-.066 2.25-.16C24.65 47.232 18 39.9 18 31z" fill="#FE5E44"/>
    <path d="M32 31c0-1.072.492-2.018 1.25-2.66A3.47 3.47 0 0 0 31 27.5a3.501 3.501 0 0 0-3.5 3.5c0 1.932 1.568 3.5 3.5 3.5a3.47 3.47 0 0 0 2.25-.84A3.476 3.476 0 0 1 32 31z" fill="#FE9172"/>
    <path d="M23 31c1.688-4.41 5.63-7.524 10.25-8.3-.736-.124-1.486-.2-2.25-.2-5.562 0-10.542 3.386-12.5 8.5 1.958 5.114 6.938 8.5 12.5 8.5.764 0 1.514-.078 2.25-.2-4.62-.776-8.562-3.89-10.25-8.3z" fill="#EFF1FF"/>
    <path d="M31 50c-10.476 0-19-8.524-19-19s8.524-19 19-19c3.372 0 6.67.894 9.542 2.588l-1.524 2.586A15.786 15.786 0 0 0 31 15c-8.822 0-16 7.178-16 16s7.178 16 16 16 16-7.178 16-16c0-4.454-1.78-8.592-5.012-11.65l2.062-2.18C47.888 20.802 50 25.714 50 31c0 10.476-8.524 19-19 19z" fill="#0E144A"/>
    <path d="m42.16 44.293 2.12-2.121 15.27 15.27-2.121 2.12-15.27-15.269zM23.344 25.984l2.019-2.218 4.8 4.37-2.019 2.218-4.8-4.37zM31.771 33.691l2.02-2.218 4.8 4.37-2.02 2.218-4.8-4.37z" fill="#0E144A"/>
    <path d="M31 41c-6.146 0-11.734-3.802-13.9-9.462a1.506 1.506 0 0 1 0-1.074c2.166-5.66 7.754-9.462 13.9-9.462 6.146 0 11.734 3.802 13.9 9.462.132.346.132.728 0 1.074C42.734 37.198 37.146 41 31 41zM20.122 31c1.864 4.208 6.164 7 10.878 7s9.014-2.792 10.878-7c-1.864-4.208-6.164-7-10.878-7s-9.014 2.792-10.878 7z" fill="#0E144A"/>
    <path d="M31 36c-2.756 0-5-2.242-5-5s2.244-5 5-5 5 2.242 5 5-2.244 5-5 5zm0-7c-1.102 0-2 .896-2 2s.898 2 2 2c1.102 0 2-.896 2-2s-.898-2-2-2z" fill="#0E144A"/>
</svg>
