<svg width="72" height="72" viewBox="0 0 72 72" fill="none" xmlns="http://www.w3.org/2000/svg">
    <path d="M55.246 8.334c-13.834 0-23.334-7.166-30-7.166S4.58 5 4.58 35.666c0 30.666 18.834 35.166 26.166 35.166 34.334.002 49-62.498 24.5-62.498z" fill="#EFF1FF"/>
    <path d="M2.5 31.75a1 1 0 0 1 1-1h2a1 1 0 1 1 0 2h-2a1 1 0 0 1-1-1zM8.5 36.75a1 1 0 1 1 2 0v2a1 1 0 1 1-2 0v-2zM8.5 25.25a1 1 0 1 1 2 0v2a1 1 0 1 1-2 0v-2z" fill="#A0AAEC"/>
    <path d="M17 20.5a3.5 3.5 0 1 0 0-7 3.5 3.5 0 0 0 0 7zM17 58.5a3.5 3.5 0 1 0 0-7 3.5 3.5 0 0 0 0 7zM55 20.5a3.5 3.5 0 1 0 0-7 3.5 3.5 0 0 0 0 7zM55 58.5a3.5 3.5 0 1 0 0-7 3.5 3.5 0 0 0 0 7z" fill="#fff"/>
    <path d="M36 52.5c9.113 0 16.5-7.387 16.5-16.5S45.113 19.5 36 19.5 19.5 26.887 19.5 36 26.887 52.5 36 52.5z" fill="#FE9172"/>
    <path d="M24 36c0-8.348 6.204-15.228 14.25-16.328A16.365 16.365 0 0 0 36 19.5c-9.112 0-16.5 7.388-16.5 16.5S26.888 52.5 36 52.5c.766 0 1.512-.07 2.25-.172C30.204 51.228 24 44.348 24 36z" fill="#fff"/>
    <path d="M18 17c0-1.072.492-2.018 1.25-2.66A3.47 3.47 0 0 0 17 13.5a3.501 3.501 0 0 0-3.5 3.5c0 1.932 1.568 3.5 3.5 3.5a3.47 3.47 0 0 0 2.25-.84A3.476 3.476 0 0 1 18 17zM18 55c0-1.072.492-2.018 1.25-2.66A3.47 3.47 0 0 0 17 51.5a3.501 3.501 0 0 0-3.5 3.5c0 1.932 1.568 3.5 3.5 3.5a3.47 3.47 0 0 0 2.25-.84A3.476 3.476 0 0 1 18 55zM56 17c0-1.072.492-2.018 1.25-2.66A3.47 3.47 0 0 0 55 13.5a3.501 3.501 0 0 0-3.5 3.5c0 1.932 1.568 3.5 3.5 3.5a3.47 3.47 0 0 0 2.25-.84A3.476 3.476 0 0 1 56 17zM56 55c0-1.072.492-2.018 1.25-2.66A3.47 3.47 0 0 0 55 51.5a3.501 3.501 0 0 0-3.5 3.5c0 1.932 1.568 3.5 3.5 3.5a3.47 3.47 0 0 0 2.25-.84A3.476 3.476 0 0 1 56 55z" fill="#EFF1FF"/>
    <path d="M17 22c-2.758 0-5-2.242-5-5s2.242-5 5-5 5 2.242 5 5-2.242 5-5 5zm0-7a2 2 0 1 0 .001 4.001A2 2 0 0 0 17 15zM17 60c-2.758 0-5-2.242-5-5s2.242-5 5-5 5 2.242 5 5-2.242 5-5 5zm0-7a2 2 0 1 0 .001 4.001A2 2 0 0 0 17 53zM55 22c-2.758 0-5-2.242-5-5s2.242-5 5-5 5 2.242 5 5-2.242 5-5 5zm0-7a2 2 0 1 0 .001 4.001A2 2 0 0 0 55 15zM55 60c-2.758 0-5-2.242-5-5s2.242-5 5-5 5 2.242 5 5-2.242 5-5 5zm0-7a2 2 0 1 0 .001 4.001A2 2 0 0 0 55 53zM36 54c-9.926 0-18-8.074-18-18s8.074-18 18-18 18 8.074 18 18c0 3.672-1.102 7.216-3.184 10.25l-2.472-1.7A15.041 15.041 0 0 0 51 36c0-8.272-6.728-15-15-15s-15 6.728-15 15 6.728 15 15 15c3.646 0 7.174-1.33 9.932-3.748l1.976 2.258A18.072 18.072 0 0 1 36 54z" fill="#0E144A"/>
    <path d="M34.912 53.535c-9.172-9.668-9.172-25.398 0-35.066l2.176 2.066c-8.092 8.528-8.092 22.406 0 30.934l-2.176 2.066z" fill="#0E144A"/>
    <path d="m37.088 53.535-2.176-2.066c8.092-8.528 8.092-22.406 0-30.934l2.176-2.066c9.172 9.666 9.172 25.398 0 35.066z" fill="#0E144A"/>
    <path d="M20.12 30h31.762v3H20.12v-3zM20.12 39h31.762v3H20.12v-3z" fill="#0E144A"/>
</svg>
