<svg width="536" height="466" viewBox="0 0 536 466" fill="none" xmlns="http://www.w3.org/2000/svg">
<g filter="url(#filter0_d_312_3408)">
<rect x="12" y="8" width="512" height="442" rx="24" fill="white"/>
<rect x="11.25" y="7.25" width="513.5" height="443.5" rx="24.75" stroke="#EFF1FF" stroke-width="1.5"/>
</g>
<path d="M277.334 231.667L268 241M268 241L258.667 231.667M268 241V217" stroke="#0E144A" stroke-width="2.66667" stroke-linecap="round" stroke-linejoin="round"/>
<rect x="44" y="38" width="448" height="158" rx="10" fill="#EFF1FF"/>
<path d="M120.004 167V156.818H123.902C124.638 156.818 125.249 156.934 125.737 157.166C126.227 157.395 126.593 157.708 126.835 158.106C127.08 158.504 127.203 158.954 127.203 159.458C127.203 159.872 127.124 160.227 126.964 160.522C126.805 160.814 126.592 161.051 126.323 161.233C126.055 161.415 125.755 161.546 125.423 161.626V161.725C125.785 161.745 126.131 161.856 126.462 162.058C126.797 162.257 127.071 162.539 127.283 162.903C127.495 163.268 127.601 163.709 127.601 164.226C127.601 164.753 127.473 165.227 127.218 165.648C126.963 166.065 126.578 166.395 126.065 166.637C125.551 166.879 124.905 167 124.126 167H120.004ZM121.849 165.459H123.832C124.502 165.459 124.984 165.331 125.279 165.076C125.577 164.817 125.727 164.486 125.727 164.082C125.727 163.78 125.652 163.508 125.503 163.266C125.354 163.021 125.142 162.829 124.866 162.69C124.591 162.547 124.263 162.476 123.882 162.476H121.849V165.459ZM121.849 161.148H123.673C123.991 161.148 124.278 161.09 124.533 160.974C124.789 160.855 124.989 160.688 125.135 160.472C125.284 160.254 125.359 159.995 125.359 159.697C125.359 159.302 125.219 158.978 124.941 158.722C124.666 158.467 124.257 158.339 123.713 158.339H121.849V161.148ZM133.493 163.788V159.364H135.293V167H133.548V165.643H133.468C133.296 166.07 133.012 166.42 132.618 166.692C132.227 166.964 131.745 167.099 131.171 167.099C130.671 167.099 130.228 166.988 129.844 166.766C129.463 166.541 129.164 166.214 128.949 165.787C128.734 165.356 128.626 164.836 128.626 164.226V159.364H130.426V163.947C130.426 164.431 130.558 164.816 130.823 165.101C131.088 165.386 131.436 165.528 131.867 165.528C132.133 165.528 132.389 165.464 132.638 165.335C132.887 165.205 133.09 165.013 133.249 164.758C133.412 164.499 133.493 164.176 133.493 163.788ZM137.762 169.864C137.517 169.864 137.29 169.844 137.081 169.804C136.875 169.768 136.711 169.724 136.589 169.675L137.006 168.273C137.268 168.349 137.502 168.385 137.707 168.382C137.913 168.379 138.094 168.314 138.249 168.188C138.408 168.066 138.543 167.86 138.652 167.572L138.806 167.159L136.037 159.364H137.946L139.706 165.131H139.786L141.55 159.364H143.464L140.407 167.925C140.264 168.329 140.076 168.675 139.84 168.964C139.605 169.255 139.317 169.478 138.975 169.63C138.637 169.786 138.233 169.864 137.762 169.864ZM147.331 167.149C146.565 167.149 145.904 166.99 145.347 166.672C144.794 166.35 144.368 165.896 144.069 165.31C143.771 164.72 143.622 164.025 143.622 163.227C143.622 162.441 143.771 161.752 144.069 161.158C144.371 160.562 144.792 160.098 145.332 159.766C145.872 159.432 146.507 159.264 147.236 159.264C147.707 159.264 148.151 159.34 148.569 159.493C148.99 159.642 149.361 159.874 149.682 160.189C150.007 160.504 150.262 160.905 150.448 161.392C150.634 161.876 150.726 162.453 150.726 163.122V163.674H144.467V162.461H149.001C148.998 162.116 148.923 161.81 148.778 161.541C148.632 161.269 148.428 161.056 148.166 160.9C147.907 160.744 147.606 160.666 147.261 160.666C146.893 160.666 146.57 160.756 146.292 160.935C146.013 161.11 145.796 161.342 145.64 161.631C145.488 161.916 145.41 162.229 145.407 162.57V163.629C145.407 164.073 145.488 164.455 145.65 164.773C145.813 165.088 146.04 165.33 146.331 165.499C146.623 165.664 146.965 165.747 147.356 165.747C147.617 165.747 147.854 165.711 148.067 165.638C148.279 165.562 148.463 165.451 148.618 165.305C148.774 165.159 148.892 164.978 148.971 164.763L150.652 164.952C150.546 165.396 150.344 165.784 150.045 166.115C149.75 166.443 149.372 166.698 148.912 166.881C148.451 167.06 147.924 167.149 147.331 167.149ZM151.749 167V159.364H153.494V160.636H153.574C153.713 160.196 153.951 159.856 154.289 159.617C154.631 159.375 155.02 159.254 155.458 159.254C155.557 159.254 155.668 159.259 155.791 159.269C155.917 159.276 156.021 159.287 156.104 159.304V160.96C156.028 160.933 155.907 160.91 155.741 160.89C155.579 160.867 155.421 160.855 155.269 160.855C154.941 160.855 154.646 160.926 154.384 161.069C154.125 161.208 153.922 161.402 153.772 161.651C153.623 161.899 153.549 162.186 153.549 162.511V167H151.749Z" fill="#394392"/>
<path d="M385.538 159.617C385.491 159.183 385.296 158.845 384.951 158.603C384.61 158.361 384.165 158.24 383.619 158.24C383.234 158.24 382.904 158.298 382.629 158.414C382.354 158.53 382.144 158.687 381.998 158.886C381.852 159.085 381.777 159.312 381.774 159.567C381.774 159.78 381.822 159.964 381.918 160.119C382.018 160.275 382.152 160.408 382.321 160.517C382.49 160.623 382.677 160.713 382.883 160.786C383.088 160.858 383.295 160.92 383.504 160.969L384.459 161.208C384.843 161.298 385.213 161.419 385.567 161.571C385.925 161.723 386.245 161.916 386.527 162.148C386.812 162.38 387.037 162.66 387.203 162.988C387.369 163.316 387.452 163.701 387.452 164.141C387.452 164.738 387.299 165.263 386.994 165.717C386.689 166.168 386.249 166.521 385.672 166.776C385.098 167.028 384.404 167.154 383.589 167.154C382.797 167.154 382.109 167.031 381.526 166.786C380.946 166.541 380.491 166.183 380.163 165.712C379.839 165.242 379.663 164.668 379.636 163.992H381.451C381.478 164.347 381.587 164.642 381.779 164.877C381.971 165.112 382.222 165.288 382.53 165.404C382.841 165.52 383.189 165.578 383.574 165.578C383.975 165.578 384.326 165.518 384.628 165.399C384.933 165.277 385.171 165.107 385.344 164.892C385.516 164.673 385.604 164.418 385.607 164.126C385.604 163.861 385.526 163.643 385.374 163.47C385.221 163.295 385.007 163.149 384.732 163.033C384.46 162.913 384.142 162.807 383.778 162.714L382.619 162.416C381.781 162.201 381.118 161.874 380.631 161.437C380.147 160.996 379.905 160.411 379.905 159.682C379.905 159.082 380.067 158.557 380.392 158.106C380.72 157.655 381.166 157.305 381.729 157.057C382.293 156.805 382.931 156.679 383.643 156.679C384.366 156.679 384.999 156.805 385.543 157.057C386.089 157.305 386.519 157.652 386.83 158.096C387.142 158.537 387.303 159.044 387.312 159.617H385.538ZM391.897 167.149C391.132 167.149 390.47 166.99 389.914 166.672C389.36 166.35 388.934 165.896 388.636 165.31C388.338 164.72 388.188 164.025 388.188 163.227C388.188 162.441 388.338 161.752 388.636 161.158C388.937 160.562 389.358 160.098 389.899 159.766C390.439 159.432 391.074 159.264 391.803 159.264C392.273 159.264 392.718 159.34 393.135 159.493C393.556 159.642 393.927 159.874 394.249 160.189C394.574 160.504 394.829 160.905 395.014 161.392C395.2 161.876 395.293 162.453 395.293 163.122V163.674H389.034V162.461H393.568C393.564 162.116 393.49 161.81 393.344 161.541C393.198 161.269 392.994 161.056 392.732 160.9C392.474 160.744 392.172 160.666 391.828 160.666C391.46 160.666 391.137 160.756 390.858 160.935C390.58 161.11 390.363 161.342 390.207 161.631C390.054 161.916 389.977 162.229 389.973 162.57V163.629C389.973 164.073 390.054 164.455 390.217 164.773C390.379 165.088 390.606 165.33 390.898 165.499C391.19 165.664 391.531 165.747 391.922 165.747C392.184 165.747 392.421 165.711 392.633 165.638C392.845 165.562 393.029 165.451 393.185 165.305C393.341 165.159 393.458 164.978 393.538 164.763L395.218 164.952C395.112 165.396 394.91 165.784 394.612 166.115C394.317 166.443 393.939 166.698 393.478 166.881C393.017 167.06 392.49 167.149 391.897 167.149ZM398.115 156.818V167H396.315V156.818H398.115ZM401.265 156.818V167H399.466V156.818H401.265ZM405.997 167.149C405.231 167.149 404.57 166.99 404.013 166.672C403.46 166.35 403.034 165.896 402.735 165.31C402.437 164.72 402.288 164.025 402.288 163.227C402.288 162.441 402.437 161.752 402.735 161.158C403.037 160.562 403.458 160.098 403.998 159.766C404.538 159.432 405.173 159.264 405.902 159.264C406.373 159.264 406.817 159.34 407.235 159.493C407.656 159.642 408.027 159.874 408.348 160.189C408.673 160.504 408.928 160.905 409.114 161.392C409.3 161.876 409.392 162.453 409.392 163.122V163.674H403.133V162.461H407.667C407.664 162.116 407.589 161.81 407.444 161.541C407.298 161.269 407.094 161.056 406.832 160.9C406.574 160.744 406.272 160.666 405.927 160.666C405.559 160.666 405.236 160.756 404.958 160.935C404.679 161.11 404.462 161.342 404.306 161.631C404.154 161.916 404.076 162.229 404.073 162.57V163.629C404.073 164.073 404.154 164.455 404.316 164.773C404.479 165.088 404.706 165.33 404.998 165.499C405.289 165.664 405.631 165.747 406.022 165.747C406.283 165.747 406.52 165.711 406.733 165.638C406.945 165.562 407.129 165.451 407.284 165.305C407.44 165.159 407.558 164.978 407.637 164.763L409.318 164.952C409.212 165.396 409.01 165.784 408.711 166.115C408.416 166.443 408.038 166.698 407.578 166.881C407.117 167.06 406.59 167.149 405.997 167.149ZM410.415 167V159.364H412.16V160.636H412.24C412.379 160.196 412.617 159.856 412.955 159.617C413.297 159.375 413.686 159.254 414.124 159.254C414.223 159.254 414.334 159.259 414.457 159.269C414.583 159.276 414.687 159.287 414.77 159.304V160.96C414.694 160.933 414.573 160.91 414.407 160.89C414.245 160.867 414.087 160.855 413.935 160.855C413.607 160.855 413.312 160.926 413.05 161.069C412.791 161.208 412.588 161.402 412.438 161.651C412.289 161.899 412.215 162.186 412.215 162.511V167H410.415Z" fill="#394392"/>
<line x1="177.5" y1="99.5" x2="358.5" y2="99.5" stroke="#A0AAEC" stroke-linecap="round" stroke-dasharray="8 8"/>
<circle cx="397.5" cy="100.5" r="38.5" fill="white"/>
<path d="M402.803 96.4283C404.21 95.0218 405 93.1141 405 91.125C405 89.1359 404.21 87.2282 402.803 85.8217C401.397 84.4152 399.489 83.625 397.5 83.625C395.511 83.625 393.603 84.4152 392.197 85.8217C390.79 87.2282 390 89.1359 390 91.125C390 93.1141 390.79 95.0218 392.197 96.4283C393.603 97.8348 395.511 98.625 397.5 98.625C399.489 98.625 401.397 97.8348 402.803 96.4283Z" stroke="#0E144A" stroke-width="3.75" stroke-linecap="round" stroke-linejoin="round"/>
<path d="M388.219 108.094C390.681 105.633 394.019 104.25 397.5 104.25C400.981 104.25 404.319 105.633 406.781 108.094C409.242 110.556 410.625 113.894 410.625 117.375H384.375C384.375 113.894 385.758 110.556 388.219 108.094Z" stroke="#0E144A" stroke-width="3.75" stroke-linecap="round" stroke-linejoin="round"/>
<circle cx="138.5" cy="100.5" r="38.5" fill="white"/>
<path d="M143.803 96.4283C145.21 95.0218 146 93.1141 146 91.125C146 89.1359 145.21 87.2282 143.803 85.8217C142.397 84.4152 140.489 83.625 138.5 83.625C136.511 83.625 134.603 84.4152 133.197 85.8217C131.79 87.2282 131 89.1359 131 91.125C131 93.1141 131.79 95.0218 133.197 96.4283C134.603 97.8348 136.511 98.625 138.5 98.625C140.489 98.625 142.397 97.8348 143.803 96.4283Z" stroke="#0E144A" stroke-width="3.75" stroke-linecap="round" stroke-linejoin="round"/>
<path d="M129.219 108.094C131.681 105.633 135.019 104.25 138.5 104.25C141.981 104.25 145.319 105.633 147.781 108.094C150.242 110.556 151.625 113.894 151.625 117.375H125.375C125.375 113.894 126.758 110.556 129.219 108.094Z" stroke="#0E144A" stroke-width="3.75" stroke-linecap="round" stroke-linejoin="round"/>
<rect x="236" y="124" width="64" height="25" rx="8" fill="#B13774"/>
<path d="M247.455 142H244.004V131.818H247.524C248.535 131.818 249.403 132.022 250.129 132.43C250.858 132.834 251.419 133.416 251.81 134.175C252.201 134.934 252.396 135.842 252.396 136.899C252.396 137.96 252.199 138.871 251.805 139.634C251.414 140.396 250.848 140.981 250.109 141.388C249.374 141.796 248.489 142 247.455 142ZM245.849 140.404H247.365C248.074 140.404 248.666 140.275 249.14 140.016C249.614 139.754 249.97 139.365 250.209 138.848C250.447 138.328 250.567 137.678 250.567 136.899C250.567 136.12 250.447 135.474 250.209 134.96C249.97 134.443 249.617 134.057 249.15 133.802C248.686 133.543 248.109 133.414 247.42 133.414H245.849V140.404ZM253.569 142V134.364H255.369V142H253.569ZM254.474 133.28C254.189 133.28 253.944 133.185 253.738 132.996C253.533 132.804 253.43 132.574 253.43 132.305C253.43 132.034 253.533 131.803 253.738 131.614C253.944 131.422 254.189 131.326 254.474 131.326C254.762 131.326 255.008 131.422 255.21 131.614C255.415 131.803 255.518 132.034 255.518 132.305C255.518 132.574 255.415 132.804 255.21 132.996C255.008 133.185 254.762 133.28 254.474 133.28ZM262.755 136.382L261.115 136.561C261.068 136.395 260.987 136.24 260.871 136.094C260.758 135.948 260.606 135.83 260.414 135.741C260.221 135.651 259.986 135.607 259.708 135.607C259.333 135.607 259.018 135.688 258.763 135.85C258.511 136.013 258.387 136.223 258.39 136.482C258.387 136.704 258.468 136.884 258.634 137.023C258.803 137.163 259.081 137.277 259.469 137.366L260.771 137.645C261.494 137.801 262.031 138.048 262.382 138.386C262.737 138.724 262.916 139.166 262.919 139.713C262.916 140.194 262.775 140.618 262.497 140.986C262.222 141.35 261.839 141.635 261.348 141.841C260.858 142.046 260.294 142.149 259.658 142.149C258.723 142.149 257.971 141.954 257.401 141.562C256.831 141.168 256.491 140.62 256.382 139.917L258.137 139.748C258.216 140.093 258.385 140.353 258.644 140.528C258.902 140.704 259.239 140.792 259.653 140.792C260.08 140.792 260.423 140.704 260.682 140.528C260.944 140.353 261.075 140.136 261.075 139.877C261.075 139.658 260.99 139.478 260.821 139.335C260.655 139.193 260.397 139.083 260.046 139.007L258.743 138.734C258.011 138.581 257.469 138.324 257.117 137.963C256.766 137.598 256.592 137.138 256.595 136.581C256.592 136.11 256.72 135.703 256.978 135.358C257.24 135.01 257.603 134.741 258.067 134.553C258.534 134.36 259.073 134.264 259.683 134.264C260.578 134.264 261.282 134.455 261.796 134.836C262.313 135.217 262.633 135.732 262.755 136.382ZM263.903 144.864V134.364H265.673V135.626H265.778C265.87 135.441 266.001 135.244 266.17 135.035C266.339 134.823 266.568 134.642 266.856 134.493C267.145 134.34 267.513 134.264 267.96 134.264C268.55 134.264 269.082 134.415 269.556 134.717C270.033 135.015 270.411 135.457 270.689 136.044C270.971 136.627 271.112 137.343 271.112 138.192C271.112 139.03 270.974 139.743 270.699 140.33C270.424 140.916 270.05 141.364 269.576 141.672C269.102 141.98 268.565 142.134 267.965 142.134C267.528 142.134 267.165 142.061 266.876 141.915C266.588 141.77 266.356 141.594 266.18 141.388C266.008 141.18 265.874 140.982 265.778 140.797H265.703V144.864H263.903ZM265.668 138.182C265.668 138.676 265.738 139.108 265.877 139.479C266.019 139.851 266.223 140.141 266.488 140.349C266.757 140.555 267.082 140.658 267.463 140.658C267.861 140.658 268.194 140.552 268.462 140.339C268.731 140.124 268.933 139.831 269.069 139.46C269.208 139.085 269.278 138.659 269.278 138.182C269.278 137.708 269.21 137.287 269.074 136.919C268.938 136.551 268.736 136.263 268.467 136.054C268.199 135.845 267.864 135.741 267.463 135.741C267.078 135.741 266.752 135.842 266.483 136.044C266.215 136.246 266.011 136.53 265.872 136.894C265.736 137.259 265.668 137.688 265.668 138.182ZM277.02 138.788V134.364H278.82V142H277.075V140.643H276.996C276.823 141.07 276.54 141.42 276.145 141.692C275.754 141.964 275.272 142.099 274.699 142.099C274.198 142.099 273.756 141.988 273.371 141.766C272.99 141.541 272.692 141.214 272.476 140.787C272.261 140.356 272.153 139.836 272.153 139.226V134.364H273.953V138.947C273.953 139.431 274.086 139.816 274.351 140.101C274.616 140.386 274.964 140.528 275.395 140.528C275.66 140.528 275.917 140.464 276.165 140.335C276.414 140.205 276.618 140.013 276.777 139.758C276.939 139.499 277.02 139.176 277.02 138.788ZM283.984 134.364V135.756H279.594V134.364H283.984ZM280.678 132.534H282.478V139.703C282.478 139.945 282.514 140.131 282.587 140.26C282.663 140.386 282.763 140.472 282.885 140.518C283.008 140.565 283.144 140.588 283.293 140.588C283.406 140.588 283.508 140.58 283.601 140.563C283.697 140.547 283.77 140.532 283.82 140.518L284.123 141.925C284.027 141.959 283.89 141.995 283.711 142.035C283.535 142.075 283.319 142.098 283.064 142.104C282.614 142.118 282.208 142.05 281.846 141.901C281.485 141.748 281.198 141.513 280.986 141.195C280.777 140.876 280.675 140.479 280.678 140.001V132.534ZM288.288 142.149C287.522 142.149 286.861 141.99 286.304 141.672C285.751 141.35 285.325 140.896 285.026 140.31C284.728 139.72 284.579 139.025 284.579 138.227C284.579 137.441 284.728 136.752 285.026 136.158C285.328 135.562 285.749 135.098 286.289 134.766C286.829 134.432 287.464 134.264 288.193 134.264C288.664 134.264 289.108 134.34 289.526 134.493C289.947 134.642 290.318 134.874 290.639 135.189C290.964 135.504 291.219 135.905 291.405 136.392C291.591 136.876 291.683 137.453 291.683 138.122V138.674H285.424V137.461H289.958C289.955 137.116 289.88 136.81 289.735 136.541C289.589 136.269 289.385 136.056 289.123 135.9C288.865 135.744 288.563 135.666 288.218 135.666C287.85 135.666 287.527 135.756 287.249 135.935C286.97 136.11 286.753 136.342 286.597 136.631C286.445 136.916 286.367 137.229 286.364 137.57V138.629C286.364 139.073 286.445 139.455 286.607 139.773C286.77 140.088 286.997 140.33 287.289 140.499C287.58 140.664 287.922 140.747 288.313 140.747C288.575 140.747 288.811 140.711 289.024 140.638C289.236 140.562 289.42 140.451 289.575 140.305C289.731 140.159 289.849 139.978 289.928 139.763L291.609 139.952C291.503 140.396 291.301 140.784 291.002 141.115C290.707 141.443 290.329 141.698 289.869 141.881C289.408 142.06 288.881 142.149 288.288 142.149Z" fill="white"/>
<path d="M279.087 104.592C279.69 103.136 280 101.576 280 100C280 96.8174 278.736 93.7652 276.485 91.5147C274.235 89.2643 271.183 88 268 88C264.817 88 261.765 89.2643 259.515 91.5147C257.264 93.7652 256 96.8174 256 100C256 101.576 256.31 103.136 256.913 104.592C257.517 106.048 258.4 107.371 259.515 108.485C260.629 109.6 261.952 110.483 263.408 111.087C264.864 111.69 266.424 112 268 112C269.576 112 271.136 111.69 272.592 111.087C274.048 110.483 275.371 109.6 276.485 108.485C277.6 107.371 278.483 106.048 279.087 104.592Z" fill="white"/>
<path d="M268 94.6667V100M268 105.333H268.013M280 100C280 101.576 279.69 103.136 279.087 104.592C278.483 106.048 277.6 107.371 276.485 108.485C275.371 109.6 274.048 110.483 272.592 111.087C271.136 111.69 269.576 112 268 112C266.424 112 264.864 111.69 263.408 111.087C261.952 110.483 260.629 109.6 259.515 108.485C258.4 107.371 257.517 106.048 256.913 104.592C256.31 103.136 256 101.576 256 100C256 96.8174 257.264 93.7652 259.515 91.5147C261.765 89.2643 264.817 88 268 88C271.183 88 274.235 89.2643 276.485 91.5147C278.736 93.7652 280 96.8174 280 100Z" stroke="#B13774" stroke-width="2.66667" stroke-linecap="round" stroke-linejoin="round"/>
<rect x="44" y="262" width="448" height="158" rx="10" fill="#F3FDDB"/>
<rect x="178" y="370" width="181" height="31" rx="9" fill="white"/>
<path d="M191.004 391V380.818H192.849V385.496H192.973L196.945 380.818H199.197L195.26 385.387L199.232 391H197.015L193.977 386.635L192.849 387.967V391H191.004ZM201.699 380.818V391H199.899V380.818H201.699ZM206.43 391.149C205.665 391.149 205.004 390.99 204.447 390.672C203.893 390.35 203.467 389.896 203.169 389.31C202.871 388.72 202.722 388.025 202.722 387.227C202.722 386.441 202.871 385.752 203.169 385.158C203.471 384.562 203.892 384.098 204.432 383.766C204.972 383.432 205.607 383.264 206.336 383.264C206.807 383.264 207.251 383.34 207.668 383.493C208.089 383.642 208.46 383.874 208.782 384.189C209.107 384.504 209.362 384.905 209.548 385.392C209.733 385.876 209.826 386.453 209.826 387.122V387.674H203.567V386.461H208.101C208.098 386.116 208.023 385.81 207.877 385.541C207.731 385.269 207.527 385.056 207.266 384.9C207.007 384.744 206.705 384.666 206.361 384.666C205.993 384.666 205.67 384.756 205.391 384.935C205.113 385.11 204.896 385.342 204.74 385.631C204.588 385.916 204.51 386.229 204.506 386.57V387.629C204.506 388.073 204.588 388.455 204.75 388.773C204.912 389.088 205.139 389.33 205.431 389.499C205.723 389.664 206.064 389.747 206.455 389.747C206.717 389.747 206.954 389.711 207.166 389.638C207.378 389.562 207.562 389.451 207.718 389.305C207.874 389.159 207.991 388.978 208.071 388.763L209.751 388.952C209.645 389.396 209.443 389.784 209.145 390.115C208.85 390.443 208.472 390.698 208.011 390.881C207.551 391.06 207.024 391.149 206.43 391.149ZM210.849 391V383.364H212.594V384.636H212.673C212.812 384.196 213.051 383.856 213.389 383.617C213.73 383.375 214.12 383.254 214.557 383.254C214.657 383.254 214.768 383.259 214.89 383.269C215.016 383.276 215.121 383.287 215.204 383.304V384.96C215.127 384.933 215.006 384.91 214.841 384.89C214.678 384.867 214.521 384.855 214.368 384.855C214.04 384.855 213.745 384.926 213.483 385.069C213.225 385.208 213.021 385.402 212.872 385.651C212.723 385.899 212.648 386.186 212.648 386.511V391H210.849ZM218.916 391.149C218.17 391.149 217.524 390.985 216.977 390.657C216.43 390.329 216.006 389.87 215.704 389.28C215.406 388.69 215.257 388 215.257 387.212C215.257 386.423 215.406 385.732 215.704 385.138C216.006 384.545 216.43 384.085 216.977 383.756C217.524 383.428 218.17 383.264 218.916 383.264C219.662 383.264 220.308 383.428 220.855 383.756C221.402 384.085 221.824 384.545 222.123 385.138C222.424 385.732 222.575 386.423 222.575 387.212C222.575 388 222.424 388.69 222.123 389.28C221.824 389.87 221.402 390.329 220.855 390.657C220.308 390.985 219.662 391.149 218.916 391.149ZM218.926 389.707C219.33 389.707 219.668 389.596 219.94 389.374C220.212 389.149 220.414 388.847 220.547 388.469C220.682 388.092 220.75 387.671 220.75 387.207C220.75 386.739 220.682 386.317 220.547 385.939C220.414 385.558 220.212 385.254 219.94 385.029C219.668 384.804 219.33 384.691 218.926 384.691C218.511 384.691 218.167 384.804 217.892 385.029C217.62 385.254 217.416 385.558 217.28 385.939C217.148 386.317 217.081 386.739 217.081 387.207C217.081 387.671 217.148 388.092 217.28 388.469C217.416 388.847 217.62 389.149 217.892 389.374C218.167 389.596 218.511 389.707 218.926 389.707ZM229.638 385.382L227.997 385.561C227.951 385.395 227.87 385.24 227.754 385.094C227.641 384.948 227.489 384.83 227.296 384.741C227.104 384.651 226.869 384.607 226.59 384.607C226.216 384.607 225.901 384.688 225.646 384.85C225.394 385.013 225.27 385.223 225.273 385.482C225.27 385.704 225.351 385.884 225.517 386.023C225.686 386.163 225.964 386.277 226.352 386.366L227.654 386.645C228.377 386.801 228.914 387.048 229.265 387.386C229.62 387.724 229.799 388.166 229.802 388.713C229.799 389.194 229.658 389.618 229.379 389.986C229.104 390.35 228.722 390.635 228.231 390.841C227.74 391.046 227.177 391.149 226.541 391.149C225.606 391.149 224.854 390.954 224.284 390.562C223.713 390.168 223.374 389.62 223.264 388.917L225.019 388.748C225.099 389.093 225.268 389.353 225.526 389.528C225.785 389.704 226.121 389.792 226.536 389.792C226.963 389.792 227.306 389.704 227.565 389.528C227.827 389.353 227.958 389.136 227.958 388.877C227.958 388.658 227.873 388.478 227.704 388.335C227.538 388.193 227.28 388.083 226.928 388.007L225.626 387.734C224.893 387.581 224.352 387.324 224 386.963C223.649 386.598 223.475 386.138 223.478 385.581C223.475 385.11 223.602 384.703 223.861 384.358C224.123 384.01 224.486 383.741 224.95 383.553C225.417 383.36 225.956 383.264 226.566 383.264C227.46 383.264 228.165 383.455 228.678 383.836C229.195 384.217 229.515 384.732 229.638 385.382ZM236.593 391.134C235.993 391.134 235.456 390.98 234.982 390.672C234.508 390.364 234.133 389.916 233.858 389.33C233.583 388.743 233.445 388.03 233.445 387.192C233.445 386.343 233.585 385.627 233.863 385.044C234.145 384.457 234.524 384.015 235.002 383.717C235.479 383.415 236.011 383.264 236.597 383.264C237.045 383.264 237.413 383.34 237.701 383.493C237.99 383.642 238.218 383.823 238.387 384.035C238.556 384.244 238.687 384.441 238.78 384.626H238.855V380.818H240.659V391H238.889V389.797H238.78C238.687 389.982 238.553 390.18 238.377 390.388C238.202 390.594 237.97 390.77 237.681 390.915C237.393 391.061 237.03 391.134 236.593 391.134ZM237.095 389.658C237.476 389.658 237.801 389.555 238.069 389.349C238.338 389.141 238.541 388.851 238.681 388.479C238.82 388.108 238.889 387.676 238.889 387.182C238.889 386.688 238.82 386.259 238.681 385.894C238.545 385.53 238.343 385.246 238.074 385.044C237.809 384.842 237.482 384.741 237.095 384.741C236.694 384.741 236.359 384.845 236.09 385.054C235.822 385.263 235.62 385.551 235.484 385.919C235.348 386.287 235.28 386.708 235.28 387.182C235.28 387.659 235.348 388.085 235.484 388.46C235.623 388.831 235.827 389.124 236.095 389.339C236.367 389.552 236.7 389.658 237.095 389.658ZM242.077 391V383.364H243.877V391H242.077ZM242.982 382.28C242.697 382.28 242.452 382.185 242.246 381.996C242.041 381.804 241.938 381.574 241.938 381.305C241.938 381.034 242.041 380.803 242.246 380.614C242.452 380.422 242.697 380.326 242.982 380.326C243.27 380.326 243.516 380.422 243.718 380.614C243.923 380.803 244.026 381.034 244.026 381.305C244.026 381.574 243.923 381.804 243.718 381.996C243.516 382.185 243.27 382.28 242.982 382.28ZM251.263 385.382L249.622 385.561C249.576 385.395 249.495 385.24 249.379 385.094C249.266 384.948 249.114 384.83 248.921 384.741C248.729 384.651 248.494 384.607 248.215 384.607C247.841 384.607 247.526 384.688 247.271 384.85C247.019 385.013 246.895 385.223 246.898 385.482C246.895 385.704 246.976 385.884 247.142 386.023C247.311 386.163 247.589 386.277 247.977 386.366L249.279 386.645C250.002 386.801 250.539 387.048 250.89 387.386C251.245 387.724 251.424 388.166 251.427 388.713C251.424 389.194 251.283 389.618 251.004 389.986C250.729 390.35 250.347 390.635 249.856 390.841C249.365 391.046 248.802 391.149 248.166 391.149C247.231 391.149 246.479 390.954 245.909 390.562C245.338 390.168 244.999 389.62 244.889 388.917L246.644 388.748C246.724 389.093 246.893 389.353 247.151 389.528C247.41 389.704 247.746 389.792 248.161 389.792C248.588 389.792 248.931 389.704 249.19 389.528C249.452 389.353 249.583 389.136 249.583 388.877C249.583 388.658 249.498 388.478 249.329 388.335C249.163 388.193 248.905 388.083 248.553 388.007L247.251 387.734C246.518 387.581 245.977 387.324 245.625 386.963C245.274 386.598 245.1 386.138 245.103 385.581C245.1 385.11 245.227 384.703 245.486 384.358C245.748 384.01 246.111 383.741 246.575 383.553C247.042 383.36 247.581 383.264 248.191 383.264C249.085 383.264 249.79 383.455 250.303 383.836C250.82 384.217 251.14 384.732 251.263 385.382ZM252.411 393.864V383.364H254.181V384.626H254.285C254.378 384.441 254.509 384.244 254.678 384.035C254.847 383.823 255.076 383.642 255.364 383.493C255.653 383.34 256.02 383.264 256.468 383.264C257.058 383.264 257.59 383.415 258.064 383.717C258.541 384.015 258.919 384.457 259.197 385.044C259.479 385.627 259.62 386.343 259.62 387.192C259.62 388.03 259.482 388.743 259.207 389.33C258.932 389.916 258.558 390.364 258.084 390.672C257.61 390.98 257.073 391.134 256.473 391.134C256.035 391.134 255.672 391.061 255.384 390.915C255.096 390.77 254.864 390.594 254.688 390.388C254.516 390.18 254.381 389.982 254.285 389.797H254.211V393.864H252.411ZM254.176 387.182C254.176 387.676 254.246 388.108 254.385 388.479C254.527 388.851 254.731 389.141 254.996 389.349C255.265 389.555 255.59 389.658 255.971 389.658C256.368 389.658 256.702 389.552 256.97 389.339C257.238 389.124 257.441 388.831 257.577 388.46C257.716 388.085 257.785 387.659 257.785 387.182C257.785 386.708 257.717 386.287 257.581 385.919C257.446 385.551 257.243 385.263 256.975 385.054C256.706 384.845 256.372 384.741 255.971 384.741C255.586 384.741 255.26 384.842 254.991 385.044C254.723 385.246 254.519 385.53 254.38 385.894C254.244 386.259 254.176 386.688 254.176 387.182ZM265.528 387.788V383.364H267.328V391H265.583V389.643H265.503C265.331 390.07 265.048 390.42 264.653 390.692C264.262 390.964 263.78 391.099 263.206 391.099C262.706 391.099 262.264 390.988 261.879 390.766C261.498 390.541 261.2 390.214 260.984 389.787C260.769 389.356 260.661 388.836 260.661 388.226V383.364H262.461V387.947C262.461 388.431 262.593 388.816 262.858 389.101C263.124 389.386 263.472 389.528 263.903 389.528C264.168 389.528 264.425 389.464 264.673 389.335C264.922 389.205 265.126 389.013 265.285 388.758C265.447 388.499 265.528 388.176 265.528 387.788ZM272.492 383.364V384.756H268.102V383.364H272.492ZM269.186 381.534H270.985V388.703C270.985 388.945 271.022 389.131 271.095 389.26C271.171 389.386 271.27 389.472 271.393 389.518C271.516 389.565 271.652 389.588 271.801 389.588C271.913 389.588 272.016 389.58 272.109 389.563C272.205 389.547 272.278 389.532 272.328 389.518L272.631 390.925C272.535 390.959 272.397 390.995 272.218 391.035C272.043 391.075 271.827 391.098 271.572 391.104C271.121 391.118 270.715 391.05 270.354 390.901C269.993 390.748 269.706 390.513 269.494 390.195C269.285 389.876 269.182 389.479 269.186 389.001V381.534ZM276.796 391.149C276.03 391.149 275.369 390.99 274.812 390.672C274.258 390.35 273.833 389.896 273.534 389.31C273.236 388.72 273.087 388.025 273.087 387.227C273.087 386.441 273.236 385.752 273.534 385.158C273.836 384.562 274.257 384.098 274.797 383.766C275.337 383.432 275.972 383.264 276.701 383.264C277.172 383.264 277.616 383.34 278.034 383.493C278.454 383.642 278.826 383.874 279.147 384.189C279.472 384.504 279.727 384.905 279.913 385.392C280.098 385.876 280.191 386.453 280.191 387.122V387.674H273.932V386.461H278.466C278.463 386.116 278.388 385.81 278.242 385.541C278.097 385.269 277.893 385.056 277.631 384.9C277.372 384.744 277.071 384.666 276.726 384.666C276.358 384.666 276.035 384.756 275.757 384.935C275.478 385.11 275.261 385.342 275.105 385.631C274.953 385.916 274.875 386.229 274.872 386.57V387.629C274.872 388.073 274.953 388.455 275.115 388.773C275.278 389.088 275.505 389.33 275.796 389.499C276.088 389.664 276.429 389.747 276.82 389.747C277.082 389.747 277.319 389.711 277.531 389.638C277.744 389.562 277.927 389.451 278.083 389.305C278.239 389.159 278.357 388.978 278.436 388.763L280.117 388.952C280.011 389.396 279.808 389.784 279.51 390.115C279.215 390.443 278.837 390.698 278.377 390.881C277.916 391.06 277.389 391.149 276.796 391.149ZM284.186 391V383.364H285.931V384.636H286.011C286.15 384.196 286.389 383.856 286.727 383.617C287.068 383.375 287.458 383.254 287.895 383.254C287.995 383.254 288.106 383.259 288.228 383.269C288.354 383.276 288.459 383.287 288.542 383.304V384.96C288.465 384.933 288.344 384.91 288.179 384.89C288.016 384.867 287.859 384.855 287.706 384.855C287.378 384.855 287.083 384.926 286.821 385.069C286.563 385.208 286.359 385.402 286.21 385.651C286.061 385.899 285.986 386.186 285.986 386.511V391H284.186ZM292.303 391.149C291.538 391.149 290.877 390.99 290.32 390.672C289.766 390.35 289.34 389.896 289.042 389.31C288.744 388.72 288.595 388.025 288.595 387.227C288.595 386.441 288.744 385.752 289.042 385.158C289.344 384.562 289.765 384.098 290.305 383.766C290.845 383.432 291.48 383.264 292.209 383.264C292.68 383.264 293.124 383.34 293.541 383.493C293.962 383.642 294.334 383.874 294.655 384.189C294.98 384.504 295.235 384.905 295.421 385.392C295.606 385.876 295.699 386.453 295.699 387.122V387.674H289.44V386.461H293.974C293.971 386.116 293.896 385.81 293.75 385.541C293.604 385.269 293.401 385.056 293.139 384.9C292.88 384.744 292.579 384.666 292.234 384.666C291.866 384.666 291.543 384.756 291.264 384.935C290.986 385.11 290.769 385.342 290.613 385.631C290.461 385.916 290.383 386.229 290.379 386.57V387.629C290.379 388.073 290.461 388.455 290.623 388.773C290.785 389.088 291.012 389.33 291.304 389.499C291.596 389.664 291.937 389.747 292.328 389.747C292.59 389.747 292.827 389.711 293.039 389.638C293.251 389.562 293.435 389.451 293.591 389.305C293.747 389.159 293.865 388.978 293.944 388.763L295.624 388.952C295.518 389.396 295.316 389.784 295.018 390.115C294.723 390.443 294.345 390.698 293.884 390.881C293.424 391.06 292.897 391.149 292.303 391.149ZM302.757 385.382L301.116 385.561C301.07 385.395 300.989 385.24 300.873 385.094C300.76 384.948 300.608 384.83 300.415 384.741C300.223 384.651 299.988 384.607 299.71 384.607C299.335 384.607 299.02 384.688 298.765 384.85C298.513 385.013 298.389 385.223 298.392 385.482C298.389 385.704 298.47 385.884 298.636 386.023C298.805 386.163 299.083 386.277 299.471 386.366L300.773 386.645C301.496 386.801 302.033 387.048 302.384 387.386C302.739 387.724 302.918 388.166 302.921 388.713C302.918 389.194 302.777 389.618 302.499 389.986C302.223 390.35 301.841 390.635 301.35 390.841C300.86 391.046 300.296 391.149 299.66 391.149C298.725 391.149 297.973 390.954 297.403 390.562C296.833 390.168 296.493 389.62 296.384 388.917L298.138 388.748C298.218 389.093 298.387 389.353 298.646 389.528C298.904 389.704 299.241 389.792 299.655 389.792C300.082 389.792 300.425 389.704 300.684 389.528C300.946 389.353 301.077 389.136 301.077 388.877C301.077 388.658 300.992 388.478 300.823 388.335C300.657 388.193 300.399 388.083 300.048 388.007L298.745 387.734C298.013 387.581 297.471 387.324 297.119 386.963C296.768 386.598 296.594 386.138 296.597 385.581C296.594 385.11 296.722 384.703 296.98 384.358C297.242 384.01 297.605 383.741 298.069 383.553C298.536 383.36 299.075 383.264 299.685 383.264C300.58 383.264 301.284 383.455 301.798 383.836C302.315 384.217 302.634 384.732 302.757 385.382ZM307.236 391.149C306.49 391.149 305.844 390.985 305.297 390.657C304.75 390.329 304.326 389.87 304.025 389.28C303.726 388.69 303.577 388 303.577 387.212C303.577 386.423 303.726 385.732 304.025 385.138C304.326 384.545 304.75 384.085 305.297 383.756C305.844 383.428 306.49 383.264 307.236 383.264C307.982 383.264 308.628 383.428 309.175 383.756C309.722 384.085 310.145 384.545 310.443 385.138C310.744 385.732 310.895 386.423 310.895 387.212C310.895 388 310.744 388.69 310.443 389.28C310.145 389.87 309.722 390.329 309.175 390.657C308.628 390.985 307.982 391.149 307.236 391.149ZM307.246 389.707C307.65 389.707 307.989 389.596 308.26 389.374C308.532 389.149 308.734 388.847 308.867 388.469C309.003 388.092 309.071 387.671 309.071 387.207C309.071 386.739 309.003 386.317 308.867 385.939C308.734 385.558 308.532 385.254 308.26 385.029C307.989 384.804 307.65 384.691 307.246 384.691C306.832 384.691 306.487 384.804 306.212 385.029C305.94 385.254 305.736 385.558 305.6 385.939C305.468 386.317 305.402 386.739 305.402 387.207C305.402 387.671 305.468 388.092 305.6 388.469C305.736 388.847 305.94 389.149 306.212 389.374C306.487 389.596 306.832 389.707 307.246 389.707ZM313.722 380.818V391H311.923V380.818H313.722ZM319.94 387.788V383.364H321.74V391H319.995V389.643H319.915C319.743 390.07 319.46 390.42 319.065 390.692C318.674 390.964 318.192 391.099 317.619 391.099C317.118 391.099 316.676 390.988 316.291 390.766C315.91 390.541 315.612 390.214 315.396 389.787C315.181 389.356 315.073 388.836 315.073 388.226V383.364H316.873V387.947C316.873 388.431 317.005 388.816 317.271 389.101C317.536 389.386 317.884 389.528 318.315 389.528C318.58 389.528 318.837 389.464 319.085 389.335C319.334 389.205 319.538 389.013 319.697 388.758C319.859 388.499 319.94 388.176 319.94 387.788ZM326.904 383.364V384.756H322.514V383.364H326.904ZM323.598 381.534H325.398V388.703C325.398 388.945 325.434 389.131 325.507 389.26C325.583 389.386 325.683 389.472 325.805 389.518C325.928 389.565 326.064 389.588 326.213 389.588C326.326 389.588 326.428 389.58 326.521 389.563C326.617 389.547 326.69 389.532 326.74 389.518L327.043 390.925C326.947 390.959 326.809 390.995 326.631 391.035C326.455 391.075 326.239 391.098 325.984 391.104C325.533 391.118 325.127 391.05 324.766 390.901C324.405 390.748 324.118 390.513 323.906 390.195C323.697 389.876 323.595 389.479 323.598 389.001V381.534ZM327.909 391V383.364H329.709V391H327.909ZM328.814 382.28C328.529 382.28 328.284 382.185 328.078 381.996C327.873 381.804 327.77 381.574 327.77 381.305C327.77 381.034 327.873 380.803 328.078 380.614C328.284 380.422 328.529 380.326 328.814 380.326C329.102 380.326 329.348 380.422 329.55 380.614C329.755 380.803 329.858 381.034 329.858 381.305C329.858 381.574 329.755 381.804 329.55 381.996C329.348 382.185 329.102 382.28 328.814 382.28ZM334.39 391.149C333.645 391.149 332.998 390.985 332.452 390.657C331.905 390.329 331.48 389.87 331.179 389.28C330.881 388.69 330.731 388 330.731 387.212C330.731 386.423 330.881 385.732 331.179 385.138C331.48 384.545 331.905 384.085 332.452 383.756C332.998 383.428 333.645 383.264 334.39 383.264C335.136 383.264 335.782 383.428 336.329 383.756C336.876 384.085 337.299 384.545 337.597 385.138C337.899 385.732 338.05 386.423 338.05 387.212C338.05 388 337.899 388.69 337.597 389.28C337.299 389.87 336.876 390.329 336.329 390.657C335.782 390.985 335.136 391.149 334.39 391.149ZM334.4 389.707C334.805 389.707 335.143 389.596 335.415 389.374C335.686 389.149 335.889 388.847 336.021 388.469C336.157 388.092 336.225 387.671 336.225 387.207C336.225 386.739 336.157 386.317 336.021 385.939C335.889 385.558 335.686 385.254 335.415 385.029C335.143 384.804 334.805 384.691 334.4 384.691C333.986 384.691 333.641 384.804 333.366 385.029C333.095 385.254 332.891 385.558 332.755 385.939C332.622 386.317 332.556 386.739 332.556 387.207C332.556 387.671 332.622 388.092 332.755 388.469C332.891 388.847 333.095 389.149 333.366 389.374C333.641 389.596 333.986 389.707 334.4 389.707ZM340.877 386.526V391H339.077V383.364H340.797V384.661H340.887C341.062 384.234 341.342 383.894 341.727 383.642C342.115 383.39 342.594 383.264 343.164 383.264C343.691 383.264 344.15 383.377 344.541 383.602C344.935 383.828 345.24 384.154 345.456 384.582C345.674 385.009 345.782 385.528 345.779 386.138V391H343.979V386.416C343.979 385.906 343.846 385.506 343.581 385.218C343.319 384.93 342.957 384.786 342.493 384.786C342.178 384.786 341.898 384.855 341.652 384.994C341.41 385.13 341.22 385.327 341.081 385.586C340.945 385.844 340.877 386.158 340.877 386.526Z" fill="#59A126"/>
<rect x="178" y="370" width="181" height="31" rx="9" stroke="#59A126" stroke-width="2"/>
<g clip-path="url(#clip0_312_3408)">
<path opacity="0.7" d="M291.307 281.8L250.661 280L227 309.311L243.583 348.494L284.629 350.96L308 318.001L291.307 281.8Z" fill="#45464D"/>
<path d="M308 318.039L284.85 294.754L278.754 339.426L308 318.039Z" fill="#656569"/>
<path d="M242.781 312.8L284.85 294.754L278.755 339.426L242.781 312.8Z" fill="url(#paint0_linear_312_3408)"/>
<path d="M284.85 294.754L250.662 280.039L242.781 312.8L284.85 294.754Z" fill="url(#paint1_linear_312_3408)"/>
<path d="M242.781 312.801L243.583 348.534L278.755 339.427L242.781 312.801Z" fill="url(#paint2_linear_312_3408)"/>
<path d="M284.85 294.754L291.307 281.839L250.661 280.039L284.85 294.754Z" fill="#757578"/>
<path d="M291.306 281.838L308 318.039L284.85 294.753L291.306 281.838Z" fill="#6C6D70"/>
<path d="M308 318.039L284.629 350.999L278.754 339.426L308 318.039Z" fill="#6C6D70"/>
<path d="M284.629 350.999L243.583 348.533L278.754 339.426L284.629 350.999Z" fill="#55565A"/>
<path d="M250.661 280.039L227 309.36L242.781 312.8L250.661 280.039Z" fill="#55565A"/>
<path d="M227 309.359L243.583 348.533L242.781 312.8L227 309.359Z" fill="#656569"/>
<path opacity="0.7" d="M280.539 300.908L276.278 332.933L251.143 313.655L280.539 300.908Z" fill="#151A22"/>
<path opacity="0.7" d="M277.14 294.526L253.649 284.484L248.706 305.592L277.14 294.526Z" fill="#151A22"/>
<path opacity="0.7" d="M271.185 337.777L245.648 319.691L246.27 344.2L271.185 337.777Z" fill="#23262E"/>
<path opacity="0.7" d="M303.709 317.96L286.314 300.441L281.722 334.127L303.709 317.96Z" fill="#23262E"/>
<path opacity="0.7" d="M277.17 341.723L280.959 348.911L255.634 347.3L277.17 341.723Z" fill="#43444B"/>
<path opacity="0.7" d="M300.31 325.904L281.461 339.844L285.211 347.102L300.31 325.904Z" fill="#34363D"/>
<path opacity="0.7" d="M291.397 286.9L301.363 308.098L287.737 294.357L291.397 286.9Z" fill="#34363D"/>
<path opacity="0.7" d="M286.835 283.33L282.645 290.936L262.903 282.365L286.835 283.33Z" fill="#36383F"/>
<path opacity="0.7" d="M247.312 286.781L241.758 310.136L230.549 307.78L247.312 286.781Z" fill="#3B3C43"/>
<path opacity="0.7" d="M241.077 314.251L241.568 339.346L229.817 311.885L241.077 314.251Z" fill="#45464D"/>
</g>
<path d="M359 362.943C361.357 365.058 364.456 366.151 367.618 365.983C367.867 366.947 368 367.957 368 368.999C368 374.591 364.176 379.289 359 380.621C353.824 379.289 350 374.59 350 368.999C349.999 367.982 350.128 366.968 350.382 365.983C353.544 366.151 356.643 365.058 359 362.943Z" fill="white"/>
<path d="M356 371.999L358 373.999L362 369.999M367.618 365.983C364.456 366.151 361.357 365.058 359 362.943C356.643 365.058 353.544 366.151 350.382 365.983C350.128 366.968 349.999 367.982 350 368.999C350 374.59 353.824 379.289 359 380.621C364.176 379.289 368 374.591 368 368.999C368 367.957 367.867 366.947 367.618 365.983Z" stroke="#59A126" stroke-width="2" stroke-linecap="round" stroke-linejoin="round"/>
<defs>
<filter id="filter0_d_312_3408" x="0.5" y="0.5" width="535" height="465" filterUnits="userSpaceOnUse" color-interpolation-filters="sRGB">
<feFlood flood-opacity="0" result="BackgroundImageFix"/>
<feColorMatrix in="SourceAlpha" type="matrix" values="0 0 0 0 0 0 0 0 0 0 0 0 0 0 0 0 0 0 127 0" result="hardAlpha"/>
<feOffset dy="4"/>
<feGaussianBlur stdDeviation="5"/>
<feColorMatrix type="matrix" values="0 0 0 0 0 0 0 0 0 0 0 0 0 0 0 0 0 0 0.05 0"/>
<feBlend mode="normal" in2="BackgroundImageFix" result="effect1_dropShadow_312_3408"/>
<feBlend mode="normal" in="SourceGraphic" in2="effect1_dropShadow_312_3408" result="shape"/>
</filter>
<linearGradient id="paint0_linear_312_3408" x1="242.777" y1="317.089" x2="284.848" y2="317.089" gradientUnits="userSpaceOnUse">
<stop stop-color="#A3A2A5"/>
<stop offset="0.2705" stop-color="#9F9EA0"/>
<stop offset="0.5607" stop-color="#929194"/>
<stop offset="0.8592" stop-color="#7C7C80"/>
<stop offset="1" stop-color="#707073"/>
</linearGradient>
<linearGradient id="paint1_linear_312_3408" x1="242.499" y1="312.204" x2="272.144" y2="282.599" gradientUnits="userSpaceOnUse">
<stop stop-color="#969598"/>
<stop offset="0.3396" stop-color="#908F92"/>
<stop offset="0.7917" stop-color="#7F7F82"/>
<stop offset="1" stop-color="#757578"/>
</linearGradient>
<linearGradient id="paint2_linear_312_3408" x1="244.803" y1="311.791" x2="260.559" y2="343.3" gradientUnits="userSpaceOnUse">
<stop stop-color="#9E9EA0"/>
<stop offset="0.2759" stop-color="#9B9B9D"/>
<stop offset="0.494" stop-color="#919194"/>
<stop offset="0.6923" stop-color="#808083"/>
<stop offset="0.8777" stop-color="#69696D"/>
<stop offset="1" stop-color="#55565A"/>
</linearGradient>
<clipPath id="clip0_312_3408">
<rect width="81" height="71" fill="white" transform="translate(227 280)"/>
</clipPath>
</defs>
</svg>
