<svg width="546" height="476" viewBox="0 0 546 476" fill="none" xmlns="http://www.w3.org/2000/svg">
    <g filter="url(#miuqm30lda)">
        <rect x="17" y="11" width="512" height="442" rx="24" fill="#fff"/>
    </g>
    <path d="M282.334 234.667 273 244m0 0-9.333-9.333M273 244v-24" stroke="#0E144A" stroke-width="2.667" stroke-linecap="round" stroke-linejoin="round"/>
    <rect x="49" y="41" width="448" height="158" rx="10" fill="#EFF1FF"/>
    <path d="M125.004 170v-10.182h3.898c.736 0 1.347.116 1.835.348.49.229.856.542 1.098.94.245.398.368.848.368 1.352 0 .414-.079.769-.239 1.064a1.995 1.995 0 0 1-.641.711 2.721 2.721 0 0 1-.9.393v.099c.362.02.708.131 1.039.333.335.199.609.481.821.845.212.365.318.806.318 1.323a2.69 2.69 0 0 1-.383 1.422c-.255.417-.64.747-1.153.989-.514.242-1.16.363-1.939.363h-4.122zm1.845-1.541h1.983c.67 0 1.152-.128 1.447-.383.298-.259.448-.59.448-.994a1.525 1.525 0 0 0-.861-1.392c-.275-.143-.603-.214-.984-.214h-2.033v2.983zm0-4.311h1.824c.318 0 .605-.058.86-.174a1.44 1.44 0 0 0 .602-.502c.149-.218.224-.477.224-.775 0-.395-.14-.719-.418-.975-.275-.255-.684-.383-1.228-.383h-1.864v2.809zm11.644 2.64v-4.424h1.8V170h-1.745v-1.357h-.08a2.3 2.3 0 0 1-.85 1.049c-.391.272-.873.407-1.447.407-.5 0-.943-.111-1.327-.333a2.314 2.314 0 0 1-.895-.979c-.215-.431-.323-.951-.323-1.561v-4.862h1.8v4.583c0 .484.132.869.397 1.154.265.285.613.427 1.044.427.266 0 .522-.064.771-.193a1.57 1.57 0 0 0 .611-.577c.163-.259.244-.582.244-.97zm4.269 6.076c-.245 0-.472-.02-.681-.06a2.518 2.518 0 0 1-.492-.129l.417-1.402c.262.076.496.112.701.109a.856.856 0 0 0 .542-.194c.159-.122.294-.328.403-.616l.154-.413-2.769-7.795h1.909l1.76 5.767h.08l1.764-5.767h1.914l-3.057 8.561c-.143.404-.331.75-.567 1.039a2.298 2.298 0 0 1-.865.666c-.338.156-.742.234-1.213.234zm9.569-2.715c-.766 0-1.427-.159-1.984-.477a3.247 3.247 0 0 1-1.278-1.362c-.298-.59-.447-1.285-.447-2.083 0-.786.149-1.475.447-2.069a3.395 3.395 0 0 1 1.263-1.392c.54-.334 1.175-.502 1.904-.502.471 0 .915.076 1.333.229a3 3 0 0 1 1.113.696c.325.315.58.716.766 1.203.186.484.278 1.061.278 1.73v.552h-6.259v-1.213h4.534a1.943 1.943 0 0 0-.223-.92 1.627 1.627 0 0 0-.612-.641 1.718 1.718 0 0 0-.905-.234c-.368 0-.691.09-.969.269a1.84 1.84 0 0 0-.652.696c-.152.285-.23.598-.233.939v1.059c0 .444.081.826.243 1.144.163.315.39.557.681.726a2.05 2.05 0 0 0 1.025.248c.261 0 .498-.036.711-.109.212-.076.396-.187.551-.333.156-.146.274-.327.353-.542l1.681.189a2.61 2.61 0 0 1-.607 1.163 2.97 2.97 0 0 1-1.133.766c-.461.179-.988.268-1.581.268zm4.418-.149v-7.636h1.745v1.272h.08c.139-.44.377-.78.715-1.019a1.972 1.972 0 0 1 1.169-.363c.099 0 .21.005.333.015.126.007.23.018.313.035v1.656a1.85 1.85 0 0 0-.363-.07 3.367 3.367 0 0 0-.472-.035c-.328 0-.623.071-.885.214a1.565 1.565 0 0 0-.612.582 1.638 1.638 0 0 0-.223.86V170h-1.8zM390.538 162.617a1.359 1.359 0 0 0-.587-1.014c-.341-.242-.786-.363-1.332-.363-.385 0-.715.058-.99.174a1.463 1.463 0 0 0-.631.472 1.146 1.146 0 0 0-.224.681c0 .213.048.397.144.552.1.156.234.289.403.398.169.106.356.196.562.269.205.072.412.134.621.183l.955.239c.384.09.754.211 1.108.363.358.152.678.345.96.577.285.232.51.512.676.84.166.328.249.713.249 1.153 0 .597-.153 1.122-.458 1.576-.305.451-.745.804-1.322 1.059-.574.252-1.268.378-2.083.378-.792 0-1.48-.123-2.063-.368-.58-.245-1.035-.603-1.363-1.074-.324-.47-.5-1.044-.527-1.72h1.815c.027.355.136.65.328.885s.443.411.751.527a2.97 2.97 0 0 0 1.044.174c.401 0 .752-.06 1.054-.179.305-.122.543-.292.716-.507.172-.219.26-.474.263-.766a.974.974 0 0 0-.233-.656 1.727 1.727 0 0 0-.642-.437 6.146 6.146 0 0 0-.954-.319l-1.159-.298c-.838-.215-1.501-.542-1.988-.979-.484-.441-.726-1.026-.726-1.755 0-.6.162-1.125.487-1.576.328-.451.774-.801 1.337-1.049.564-.252 1.202-.378 1.914-.378.723 0 1.356.126 1.9.378.546.248.976.595 1.287 1.039.312.441.473.948.482 1.521h-1.774zm6.359 7.532c-.765 0-1.427-.159-1.983-.477a3.234 3.234 0 0 1-1.278-1.362c-.298-.59-.448-1.285-.448-2.083 0-.786.15-1.475.448-2.069a3.382 3.382 0 0 1 1.263-1.392c.54-.334 1.175-.502 1.904-.502.47 0 .915.076 1.332.229.421.149.792.381 1.114.696.325.315.58.716.765 1.203.186.484.279 1.061.279 1.73v.552h-6.259v-1.213h4.534a1.944 1.944 0 0 0-.224-.92 1.627 1.627 0 0 0-.612-.641 1.715 1.715 0 0 0-.904-.234c-.368 0-.691.09-.97.269a1.844 1.844 0 0 0-.651.696c-.153.285-.23.598-.234.939v1.059c0 .444.081.826.244 1.144.162.315.389.557.681.726.292.165.633.248 1.024.248.262 0 .499-.036.711-.109.212-.076.396-.187.552-.333.156-.146.273-.327.353-.542l1.68.189a2.618 2.618 0 0 1-.606 1.163 2.967 2.967 0 0 1-1.134.766c-.461.179-.988.268-1.581.268zm6.218-10.331V170h-1.8v-10.182h1.8zm3.15 0V170h-1.799v-10.182h1.799zm4.732 10.331c-.766 0-1.427-.159-1.984-.477a3.247 3.247 0 0 1-1.278-1.362c-.298-.59-.447-1.285-.447-2.083 0-.786.149-1.475.447-2.069a3.395 3.395 0 0 1 1.263-1.392c.54-.334 1.175-.502 1.904-.502.471 0 .915.076 1.333.229a3 3 0 0 1 1.113.696c.325.315.58.716.766 1.203.186.484.278 1.061.278 1.73v.552h-6.259v-1.213h4.534a1.943 1.943 0 0 0-.223-.92 1.627 1.627 0 0 0-.612-.641 1.716 1.716 0 0 0-.905-.234c-.368 0-.691.09-.969.269a1.84 1.84 0 0 0-.652.696c-.152.285-.23.598-.233.939v1.059c0 .444.081.826.243 1.144.163.315.39.557.682.726.291.165.633.248 1.024.248.261 0 .498-.036.711-.109.212-.076.396-.187.551-.333.156-.146.274-.327.353-.542l1.681.189a2.61 2.61 0 0 1-.607 1.163 2.97 2.97 0 0 1-1.133.766c-.461.179-.988.268-1.581.268zm4.418-.149v-7.636h1.745v1.272h.08c.139-.44.377-.78.715-1.019a1.972 1.972 0 0 1 1.169-.363c.099 0 .21.005.333.015.126.007.23.018.313.035v1.656a1.85 1.85 0 0 0-.363-.07 3.367 3.367 0 0 0-.472-.035c-.328 0-.623.071-.885.214a1.565 1.565 0 0 0-.612.582 1.638 1.638 0 0 0-.223.86V170h-1.8z" fill="#394392"/>
    <path stroke="#A0AAEC" stroke-linecap="round" stroke-dasharray="8 8" d="M182.5 102.5h181"/>
    <circle cx="402.5" cy="103.5" r="38.5" fill="#fff"/>
    <path d="M407.803 99.428a7.498 7.498 0 0 0-5.303-12.803 7.499 7.499 0 0 0-5.303 12.803 7.498 7.498 0 0 0 10.606 0zM393.219 111.094a13.128 13.128 0 0 1 18.562 0 13.128 13.128 0 0 1 3.844 9.281h-26.25c0-3.481 1.383-6.819 3.844-9.281z" stroke="#0E144A" stroke-width="3.75" stroke-linecap="round" stroke-linejoin="round"/>
    <circle cx="143.5" cy="103.5" r="38.5" fill="#fff"/>
    <path d="M148.803 99.428a7.498 7.498 0 0 0-5.303-12.803 7.499 7.499 0 0 0-5.303 12.803 7.498 7.498 0 0 0 10.606 0zM134.219 111.094a13.128 13.128 0 0 1 18.562 0 13.128 13.128 0 0 1 3.844 9.281h-26.25c0-3.481 1.383-6.819 3.844-9.281z" stroke="#0E144A" stroke-width="3.75" stroke-linecap="round" stroke-linejoin="round"/>
    <rect x="241" y="127" width="64" height="25" rx="8" fill="#B13774"/>
    <path d="M252.455 145h-3.451v-10.182h3.52c1.011 0 1.879.204 2.605.612.729.404 1.29.986 1.681 1.745.391.759.586 1.667.586 2.724 0 1.061-.197 1.972-.591 2.735a4.086 4.086 0 0 1-1.696 1.754c-.735.408-1.62.612-2.654.612zm-1.606-1.596h1.516c.709 0 1.301-.129 1.775-.388.474-.262.83-.651 1.069-1.168.238-.52.358-1.17.358-1.949 0-.779-.12-1.425-.358-1.939a2.443 2.443 0 0 0-1.059-1.158c-.464-.259-1.041-.388-1.73-.388h-1.571v6.99zm7.72 1.596v-7.636h1.8V145h-1.8zm.905-8.72c-.285 0-.53-.095-.736-.284a.914.914 0 0 1-.308-.691c0-.271.103-.502.308-.691.206-.192.451-.288.736-.288.288 0 .534.096.736.288.205.189.308.42.308.691a.914.914 0 0 1-.308.691 1.04 1.04 0 0 1-.736.284zm8.281 3.102-1.64.179a1.327 1.327 0 0 0-.244-.467 1.206 1.206 0 0 0-.457-.353 1.663 1.663 0 0 0-.706-.134c-.375 0-.69.081-.945.243-.252.163-.376.373-.373.632a.66.66 0 0 0 .244.541c.169.14.447.254.835.343l1.302.279c.723.156 1.26.403 1.611.741.355.338.534.78.537 1.327a2.077 2.077 0 0 1-.422 1.273c-.275.364-.658.649-1.149.855-.49.205-1.054.308-1.69.308-.935 0-1.687-.195-2.257-.587-.57-.394-.91-.942-1.019-1.645l1.755-.169c.079.345.248.605.507.78.258.176.595.264 1.009.264.427 0 .77-.088 1.029-.264.262-.175.393-.392.393-.651a.68.68 0 0 0-.254-.542c-.166-.142-.424-.252-.775-.328l-1.303-.273c-.732-.153-1.274-.41-1.626-.771-.351-.365-.525-.825-.522-1.382a1.962 1.962 0 0 1 .383-1.223c.262-.348.625-.617 1.089-.805.467-.193 1.006-.289 1.616-.289.895 0 1.599.191 2.113.572a2.4 2.4 0 0 1 .959 1.546zm1.148 8.482v-10.5h1.77v1.262h.105c.092-.185.223-.382.392-.591.169-.212.398-.393.686-.542.289-.153.657-.229 1.104-.229.59 0 1.122.151 1.596.453.477.298.855.74 1.133 1.327.282.583.423 1.299.423 2.148 0 .838-.138 1.551-.413 2.138-.275.586-.649 1.034-1.123 1.342a2.892 2.892 0 0 1-1.611.462c-.437 0-.8-.073-1.089-.219a2.203 2.203 0 0 1-.696-.527 3.408 3.408 0 0 1-.402-.591h-.075v4.067h-1.8zm1.765-6.682c0 .494.07.926.209 1.297.142.372.346.662.611.87.269.206.594.309.975.309.398 0 .731-.106.999-.319.269-.215.471-.508.607-.879a3.66 3.66 0 0 0 .209-1.278 3.63 3.63 0 0 0-.204-1.263 1.894 1.894 0 0 0-.607-.865c-.268-.209-.603-.313-1.004-.313-.385 0-.711.101-.98.303-.268.202-.472.486-.611.85-.136.365-.204.794-.204 1.288zm11.352.606v-4.424h1.8V145h-1.745v-1.357h-.079a2.303 2.303 0 0 1-.851 1.049c-.391.272-.873.407-1.446.407-.501 0-.943-.111-1.328-.333a2.32 2.32 0 0 1-.895-.979c-.215-.431-.323-.951-.323-1.561v-4.862h1.8v4.583c0 .484.133.869.398 1.154.265.285.613.427 1.044.427.265 0 .522-.064.77-.193.249-.13.453-.322.612-.577.162-.259.243-.582.243-.97zm6.964-4.424v1.392h-4.39v-1.392h4.39zm-3.306-1.83h1.8v7.169c0 .242.036.428.109.557a.588.588 0 0 0 .298.258c.123.047.259.07.408.07a2.231 2.231 0 0 0 .527-.07l.303 1.407c-.096.034-.233.07-.412.11-.176.04-.392.063-.647.069a2.93 2.93 0 0 1-1.218-.203 1.9 1.9 0 0 1-.86-.706c-.209-.319-.311-.716-.308-1.194v-7.467zm7.61 9.615c-.766 0-1.427-.159-1.984-.477a3.247 3.247 0 0 1-1.278-1.362c-.298-.59-.447-1.285-.447-2.083 0-.786.149-1.475.447-2.069a3.395 3.395 0 0 1 1.263-1.392c.54-.334 1.175-.502 1.904-.502.471 0 .915.076 1.333.229a3 3 0 0 1 1.113.696c.325.315.58.716.766 1.203.186.484.278 1.061.278 1.73v.552h-6.259v-1.213h4.534a1.943 1.943 0 0 0-.223-.92 1.627 1.627 0 0 0-.612-.641 1.716 1.716 0 0 0-.905-.234c-.368 0-.691.09-.969.269a1.84 1.84 0 0 0-.652.696c-.152.285-.23.598-.233.939v1.059c0 .444.081.826.243 1.144.163.315.39.557.682.726.291.165.633.248 1.024.248.262 0 .498-.036.711-.109.212-.076.396-.187.551-.333.156-.146.274-.327.353-.542l1.681.189a2.61 2.61 0 0 1-.607 1.163 2.97 2.97 0 0 1-1.133.766c-.461.179-.988.268-1.581.268zM284.087 107.592a12 12 0 1 0-22.173-9.182 12 12 0 0 0 22.173 9.182z" fill="#fff"/>
    <path d="M273 97.667V103m0 5.333h.013M285 103a12 12 0 1 1-23.999.002A12 12 0 0 1 285 103z" stroke="#B13774" stroke-width="2.667" stroke-linecap="round" stroke-linejoin="round"/>
    <rect x="49" y="265" width="448" height="158" rx="10" fill="#F3FDDB"/>
    <rect x="183" y="373" width="181" height="31" rx="9" fill="#fff"/>
    <path d="M196.004 394v-10.182h1.845v4.678h.124l3.972-4.678h2.252l-3.937 4.569 3.972 5.613h-2.217l-3.038-4.365-1.128 1.332V394h-1.845zm10.695-10.182V394h-1.8v-10.182h1.8zm4.731 10.331c-.765 0-1.426-.159-1.983-.477a3.234 3.234 0 0 1-1.278-1.362c-.298-.59-.447-1.285-.447-2.083 0-.786.149-1.475.447-2.069a3.395 3.395 0 0 1 1.263-1.392c.54-.334 1.175-.502 1.904-.502.471 0 .915.076 1.332.229.421.149.792.381 1.114.696.325.315.58.716.766 1.203.185.484.278 1.061.278 1.73v.552h-6.259v-1.213h4.534a1.932 1.932 0 0 0-.224-.92 1.632 1.632 0 0 0-.611-.641 1.72 1.72 0 0 0-.905-.234c-.368 0-.691.09-.97.269a1.844 1.844 0 0 0-.651.696c-.152.285-.23.598-.234.939v1.059c0 .444.082.826.244 1.144.162.315.389.557.681.726.292.165.633.248 1.024.248.262 0 .499-.036.711-.109.212-.076.396-.187.552-.333.156-.146.273-.327.353-.542l1.68.189a2.618 2.618 0 0 1-.606 1.163 2.967 2.967 0 0 1-1.134.766c-.46.179-.987.268-1.581.268zm4.419-.149v-7.636h1.745v1.272h.079c.139-.44.378-.78.716-1.019a1.97 1.97 0 0 1 1.168-.363c.1 0 .211.005.333.015.126.007.231.018.314.035v1.656a1.883 1.883 0 0 0-.363-.07 3.38 3.38 0 0 0-.473-.035c-.328 0-.623.071-.885.214a1.562 1.562 0 0 0-.611.582 1.638 1.638 0 0 0-.224.86V394h-1.799zm8.067.149c-.746 0-1.392-.164-1.939-.492a3.343 3.343 0 0 1-1.273-1.377c-.298-.59-.447-1.28-.447-2.068 0-.789.149-1.48.447-2.074a3.344 3.344 0 0 1 1.273-1.382c.547-.328 1.193-.492 1.939-.492s1.392.164 1.939.492c.547.329.969.789 1.268 1.382.301.594.452 1.285.452 2.074 0 .788-.151 1.478-.452 2.068a3.312 3.312 0 0 1-1.268 1.377c-.547.328-1.193.492-1.939.492zm.01-1.442c.404 0 .742-.111 1.014-.333.272-.225.474-.527.607-.905.135-.377.203-.798.203-1.262 0-.468-.068-.89-.203-1.268a2.008 2.008 0 0 0-.607-.91c-.272-.225-.61-.338-1.014-.338-.415 0-.759.113-1.034.338a2.04 2.04 0 0 0-.612.91c-.132.378-.199.8-.199 1.268 0 .464.067.885.199 1.262.136.378.34.68.612.905.275.222.619.333 1.034.333zm10.712-4.325-1.641.179a1.308 1.308 0 0 0-.243-.467 1.202 1.202 0 0 0-.458-.353 1.656 1.656 0 0 0-.706-.134c-.374 0-.689.081-.944.243-.252.163-.376.373-.373.632a.66.66 0 0 0 .244.541c.169.14.447.254.835.343l1.302.279c.723.156 1.26.403 1.611.741.355.338.534.78.537 1.327a2.071 2.071 0 0 1-.423 1.273c-.275.364-.657.649-1.148.855-.491.205-1.054.308-1.69.308-.935 0-1.687-.195-2.257-.587-.571-.394-.91-.942-1.02-1.645l1.755-.169c.08.345.249.605.507.78.259.176.595.264 1.01.264.427 0 .77-.088 1.029-.264.262-.175.393-.392.393-.651a.68.68 0 0 0-.254-.542c-.166-.142-.424-.252-.776-.328l-1.302-.273c-.733-.153-1.274-.41-1.626-.771-.351-.365-.525-.825-.522-1.382-.003-.471.124-.878.383-1.223.262-.348.625-.617 1.089-.805.467-.193 1.006-.289 1.616-.289.894 0 1.599.191 2.112.572.517.381.837.896.96 1.546zm6.955 5.752c-.6 0-1.137-.154-1.611-.462-.474-.308-.849-.756-1.124-1.342-.275-.587-.413-1.3-.413-2.138 0-.849.14-1.565.418-2.148.282-.587.661-1.029 1.139-1.327a2.921 2.921 0 0 1 1.595-.453c.448 0 .816.076 1.104.229.289.149.517.33.686.542.169.209.3.406.393.591h.075v-3.808h1.804V394h-1.77v-1.203h-.109a3.063 3.063 0 0 1-.403.591 2.18 2.18 0 0 1-.696.527c-.288.146-.651.219-1.088.219zm.502-1.476c.381 0 .706-.103.974-.309.269-.208.472-.498.612-.87.139-.371.208-.803.208-1.297 0-.494-.069-.923-.208-1.288-.136-.364-.338-.648-.607-.85-.265-.202-.592-.303-.979-.303-.401 0-.736.104-1.005.313a1.9 1.9 0 0 0-.606.865 3.63 3.63 0 0 0-.204 1.263c0 .477.068.903.204 1.278.139.371.343.664.611.879.272.213.605.319 1 .319zm4.982 1.342v-7.636h1.8V394h-1.8zm.905-8.72c-.285 0-.53-.095-.736-.284a.914.914 0 0 1-.308-.691c0-.271.103-.502.308-.691.206-.192.451-.288.736-.288.288 0 .534.096.736.288.205.189.308.42.308.691a.914.914 0 0 1-.308.691 1.04 1.04 0 0 1-.736.284zm8.281 3.102-1.641.179a1.308 1.308 0 0 0-.243-.467 1.202 1.202 0 0 0-.458-.353 1.656 1.656 0 0 0-.706-.134c-.374 0-.689.081-.944.243-.252.163-.376.373-.373.632a.66.66 0 0 0 .244.541c.169.14.447.254.835.343l1.302.279c.723.156 1.26.403 1.611.741.355.338.534.78.537 1.327a2.071 2.071 0 0 1-.423 1.273c-.275.364-.657.649-1.148.855-.491.205-1.054.308-1.69.308-.935 0-1.687-.195-2.257-.587-.571-.394-.91-.942-1.02-1.645l1.755-.169c.08.345.249.605.507.78.259.176.595.264 1.01.264.427 0 .77-.088 1.029-.264.262-.175.393-.392.393-.651a.68.68 0 0 0-.254-.542c-.166-.142-.424-.252-.776-.328l-1.302-.273c-.733-.153-1.274-.41-1.626-.771-.351-.365-.525-.825-.522-1.382-.003-.471.124-.878.383-1.223.262-.348.625-.617 1.089-.805.467-.193 1.006-.289 1.616-.289.894 0 1.599.191 2.112.572.517.381.837.896.96 1.546zm1.148 8.482v-10.5h1.77v1.262h.104c.093-.185.224-.382.393-.591.169-.212.398-.393.686-.542.289-.153.656-.229 1.104-.229.59 0 1.122.151 1.596.453.477.298.855.74 1.133 1.327.282.583.423 1.299.423 2.148 0 .838-.138 1.551-.413 2.138-.275.586-.649 1.034-1.123 1.342a2.892 2.892 0 0 1-1.611.462c-.438 0-.801-.073-1.089-.219a2.203 2.203 0 0 1-.696-.527 3.418 3.418 0 0 1-.403-.591h-.074v4.067h-1.8zm1.765-6.682c0 .494.07.926.209 1.297.142.372.346.662.611.87.269.206.594.309.975.309.397 0 .731-.106.999-.319.268-.215.471-.508.607-.879a3.66 3.66 0 0 0 .208-1.278 3.63 3.63 0 0 0-.204-1.263 1.893 1.893 0 0 0-.606-.865c-.269-.209-.603-.313-1.004-.313-.385 0-.711.101-.98.303-.268.202-.472.486-.611.85-.136.365-.204.794-.204 1.288zm11.352.606v-4.424h1.8V394h-1.745v-1.357h-.08a2.294 2.294 0 0 1-.85 1.049c-.391.272-.873.407-1.447.407-.5 0-.942-.111-1.327-.333a2.32 2.32 0 0 1-.895-.979c-.215-.431-.323-.951-.323-1.561v-4.862h1.8v4.583c0 .484.132.869.397 1.154.266.285.614.427 1.045.427.265 0 .522-.064.77-.193.249-.13.453-.322.612-.577.162-.259.243-.582.243-.97zm6.964-4.424v1.392h-4.39v-1.392h4.39zm-3.306-1.83h1.799v7.169c0 .242.037.428.11.557a.584.584 0 0 0 .298.258c.123.047.259.07.408.07a2.231 2.231 0 0 0 .527-.07l.303 1.407c-.096.034-.234.07-.413.11-.175.04-.391.063-.646.069a2.924 2.924 0 0 1-1.218-.203 1.9 1.9 0 0 1-.86-.706c-.209-.319-.312-.716-.308-1.194v-7.467zm7.61 9.615c-.766 0-1.427-.159-1.984-.477a3.24 3.24 0 0 1-1.278-1.362c-.298-.59-.447-1.285-.447-2.083 0-.786.149-1.475.447-2.069a3.395 3.395 0 0 1 1.263-1.392c.54-.334 1.175-.502 1.904-.502.471 0 .915.076 1.333.229.42.149.792.381 1.113.696.325.315.58.716.766 1.203.185.484.278 1.061.278 1.73v.552h-6.259v-1.213h4.534a1.932 1.932 0 0 0-.224-.92 1.618 1.618 0 0 0-.611-.641 1.718 1.718 0 0 0-.905-.234c-.368 0-.691.09-.969.269a1.84 1.84 0 0 0-.652.696c-.152.285-.23.598-.233.939v1.059c0 .444.081.826.243 1.144.163.315.39.557.681.726.292.165.633.248 1.024.248.262 0 .499-.036.711-.109.213-.076.396-.187.552-.333.156-.146.274-.327.353-.542l1.681.189a2.62 2.62 0 0 1-.607 1.163 2.97 2.97 0 0 1-1.133.766c-.461.179-.988.268-1.581.268zm7.39-.149v-7.636h1.745v1.272h.08c.139-.44.378-.78.716-1.019a1.97 1.97 0 0 1 1.168-.363c.1 0 .211.005.333.015.126.007.231.018.314.035v1.656a1.883 1.883 0 0 0-.363-.07 3.38 3.38 0 0 0-.473-.035c-.328 0-.623.071-.885.214a1.562 1.562 0 0 0-.611.582 1.638 1.638 0 0 0-.224.86V394h-1.8zm8.117.149c-.765 0-1.426-.159-1.983-.477a3.234 3.234 0 0 1-1.278-1.362c-.298-.59-.447-1.285-.447-2.083 0-.786.149-1.475.447-2.069a3.395 3.395 0 0 1 1.263-1.392c.54-.334 1.175-.502 1.904-.502.471 0 .915.076 1.332.229.421.149.793.381 1.114.696.325.315.58.716.766 1.203.185.484.278 1.061.278 1.73v.552h-6.259v-1.213h4.534a1.932 1.932 0 0 0-.224-.92 1.625 1.625 0 0 0-.611-.641 1.718 1.718 0 0 0-.905-.234c-.368 0-.691.09-.97.269a1.844 1.844 0 0 0-.651.696c-.152.285-.23.598-.234.939v1.059c0 .444.082.826.244 1.144.162.315.389.557.681.726.292.165.633.248 1.024.248.262 0 .499-.036.711-.109.212-.076.396-.187.552-.333.156-.146.274-.327.353-.542l1.68.189a2.618 2.618 0 0 1-.606 1.163 2.967 2.967 0 0 1-1.134.766c-.46.179-.987.268-1.581.268zm10.454-5.767-1.641.179a1.308 1.308 0 0 0-.243-.467 1.202 1.202 0 0 0-.458-.353 1.655 1.655 0 0 0-.705-.134c-.375 0-.69.081-.945.243-.252.163-.376.373-.373.632a.66.66 0 0 0 .244.541c.169.14.447.254.835.343l1.302.279c.723.156 1.26.403 1.611.741.355.338.534.78.537 1.327a2.077 2.077 0 0 1-.422 1.273c-.276.364-.658.649-1.149.855-.49.205-1.054.308-1.69.308-.935 0-1.687-.195-2.257-.587-.57-.394-.91-.942-1.019-1.645l1.754-.169c.08.345.249.605.508.78.258.176.595.264 1.009.264.427 0 .77-.088 1.029-.264.262-.175.393-.392.393-.651a.68.68 0 0 0-.254-.542c-.166-.142-.424-.252-.775-.328l-1.303-.273c-.732-.153-1.274-.41-1.626-.771-.351-.365-.525-.825-.522-1.382a1.962 1.962 0 0 1 .383-1.223c.262-.348.625-.617 1.089-.805.467-.193 1.006-.289 1.616-.289.895 0 1.599.191 2.113.572.517.381.836.896.959 1.546zm4.479 5.767c-.746 0-1.392-.164-1.939-.492a3.334 3.334 0 0 1-1.272-1.377c-.299-.59-.448-1.28-.448-2.068 0-.789.149-1.48.448-2.074a3.336 3.336 0 0 1 1.272-1.382c.547-.328 1.193-.492 1.939-.492s1.392.164 1.939.492c.547.329.97.789 1.268 1.382.301.594.452 1.285.452 2.074 0 .788-.151 1.478-.452 2.068a3.306 3.306 0 0 1-1.268 1.377c-.547.328-1.193.492-1.939.492zm.01-1.442c.404 0 .743-.111 1.014-.333.272-.225.474-.527.607-.905a3.7 3.7 0 0 0 .204-1.262c0-.468-.068-.89-.204-1.268a2.008 2.008 0 0 0-.607-.91c-.271-.225-.61-.338-1.014-.338-.414 0-.759.113-1.034.338a2.04 2.04 0 0 0-.612.91c-.132.378-.198.8-.198 1.268 0 .464.066.885.198 1.262.136.378.34.68.612.905.275.222.62.333 1.034.333zm6.476-8.889V394h-1.799v-10.182h1.799zm6.218 6.97v-4.424h1.8V394h-1.745v-1.357h-.08a2.294 2.294 0 0 1-.85 1.049c-.391.272-.873.407-1.446.407-.501 0-.943-.111-1.328-.333a2.32 2.32 0 0 1-.895-.979c-.215-.431-.323-.951-.323-1.561v-4.862h1.8v4.583c0 .484.132.869.398 1.154.265.285.613.427 1.044.427.265 0 .522-.064.77-.193.249-.13.453-.322.612-.577.162-.259.243-.582.243-.97zm6.964-4.424v1.392h-4.39v-1.392h4.39zm-3.306-1.83h1.8v7.169c0 .242.036.428.109.557a.588.588 0 0 0 .298.258c.123.047.259.07.408.07a2.231 2.231 0 0 0 .527-.07l.303 1.407a3.87 3.87 0 0 1-.412.11c-.176.04-.392.063-.647.069a2.924 2.924 0 0 1-1.218-.203 1.9 1.9 0 0 1-.86-.706c-.209-.319-.311-.716-.308-1.194v-7.467zm4.311 9.466v-7.636h1.8V394h-1.8zm.905-8.72c-.285 0-.53-.095-.736-.284a.914.914 0 0 1-.308-.691c0-.271.103-.502.308-.691.206-.192.451-.288.736-.288.288 0 .534.096.736.288.205.189.308.42.308.691a.914.914 0 0 1-.308.691 1.04 1.04 0 0 1-.736.284zm5.576 8.869c-.745 0-1.392-.164-1.938-.492a3.337 3.337 0 0 1-1.273-1.377c-.298-.59-.448-1.28-.448-2.068 0-.789.15-1.48.448-2.074a3.338 3.338 0 0 1 1.273-1.382c.546-.328 1.193-.492 1.938-.492.746 0 1.392.164 1.939.492.547.329.97.789 1.268 1.382.302.594.453 1.285.453 2.074 0 .788-.151 1.478-.453 2.068a3.306 3.306 0 0 1-1.268 1.377c-.547.328-1.193.492-1.939.492zm.01-1.442c.405 0 .743-.111 1.015-.333.271-.225.474-.527.606-.905a3.7 3.7 0 0 0 .204-1.262c0-.468-.068-.89-.204-1.268a2.006 2.006 0 0 0-.606-.91c-.272-.225-.61-.338-1.015-.338-.414 0-.759.113-1.034.338a2.047 2.047 0 0 0-.611.91 3.8 3.8 0 0 0-.199 1.268c0 .464.066.885.199 1.262.136.378.34.68.611.905.275.222.62.333 1.034.333zm6.477-3.181V394h-1.8v-7.636h1.72v1.297h.09c.175-.427.455-.767.84-1.019.388-.252.867-.378 1.437-.378.527 0 .986.113 1.377.338.394.226.699.552.915.98.218.427.326.946.323 1.556V394h-1.8v-4.584c0-.51-.133-.91-.398-1.198-.262-.288-.624-.432-1.088-.432-.315 0-.595.069-.841.208a1.443 1.443 0 0 0-.571.592c-.136.258-.204.572-.204.94z" fill="#59A126"/>
    <rect x="183" y="373" width="181" height="31" rx="9" stroke="#59A126" stroke-width="2"/>
    <g clip-path="url(#tdfjfnybsb)">
        <path opacity=".7" d="m296.307 284.8-40.646-1.8L232 312.311l16.583 39.183 41.046 2.466L313 321.001 296.307 284.8z" fill="#45464D"/>
        <path d="m313 321.039-23.15-23.285-6.096 44.672L313 321.039z" fill="#656569"/>
        <path d="m247.781 315.8 42.069-18.046-6.095 44.672-35.974-26.626z" fill="url(#6240owimqc)"/>
        <path d="m289.85 297.754-34.188-14.715-7.881 32.761 42.069-18.046z" fill="url(#ztah73z6qd)"/>
        <path d="m247.781 315.801.802 35.733 35.172-9.107-35.974-26.626z" fill="url(#tnp336qcce)"/>
        <path d="m289.85 297.754 6.457-12.915-40.646-1.8 34.189 14.715z" fill="#757578"/>
        <path d="M296.306 284.838 313 321.039l-23.15-23.286 6.456-12.915zM313 321.039l-23.371 32.96-5.875-11.573L313 321.039z" fill="#6C6D70"/>
        <path d="m289.629 353.999-41.046-2.466 35.171-9.107 5.875 11.573zM255.661 283.039 232 312.36l15.781 3.44 7.88-32.761z" fill="#55565A"/>
        <path d="m232 312.359 16.583 39.174-.802-35.733L232 312.359z" fill="#656569"/>
        <path opacity=".7" d="m285.539 303.908-4.261 32.025-25.135-19.278 29.396-12.747zM282.14 297.526l-23.491-10.042-4.943 21.108 28.434-11.066z" fill="#151A22"/>
        <path opacity=".7" d="m276.185 340.777-25.537-18.086.622 24.509 24.915-6.423zM308.709 320.96l-17.395-17.519-4.592 33.686 21.987-16.167z" fill="#23262E"/>
        <path opacity=".7" d="m282.17 344.723 3.789 7.188-25.325-1.611 21.536-5.577z" fill="#43444B"/>
        <path opacity=".7" d="m305.31 328.904-18.849 13.94 3.75 7.258 15.099-21.198zM296.397 289.9l9.966 21.198-13.626-13.741 3.66-7.457z" fill="#34363D"/>
        <path opacity=".7" d="m291.835 286.33-4.19 7.606-19.742-8.571 23.932.965z" fill="#36383F"/>
        <path opacity=".7" d="m252.312 289.781-5.554 23.355-11.209-2.356 16.763-20.999z" fill="#3B3C43"/>
        <path opacity=".7" d="m246.077 317.251.491 25.095-11.751-27.461 11.26 2.366z" fill="#45464D"/>
    </g>
    <path d="M364 365.943a11.953 11.953 0 0 0 8.618 3.04c.249.964.382 1.974.382 3.016 0 5.592-3.824 10.29-9 11.622-5.176-1.332-9-6.031-9-11.622a12.035 12.035 0 0 1 .382-3.016 11.953 11.953 0 0 0 8.618-3.04z" fill="#fff"/>
    <path d="m361 374.999 2 2 4-4m5.618-4.016a11.953 11.953 0 0 1-8.618-3.04 11.953 11.953 0 0 1-8.618 3.04 12.035 12.035 0 0 0-.382 3.016c0 5.591 3.824 10.29 9 11.622 5.176-1.332 9-6.03 9-11.622 0-1.042-.133-2.052-.382-3.016z" stroke="#59A126" stroke-width="2" stroke-linecap="round" stroke-linejoin="round"/>
    <defs>
        <linearGradient id="6240owimqc" x1="247.777" y1="320.089" x2="289.848" y2="320.089" gradientUnits="userSpaceOnUse">
            <stop stop-color="#A3A2A5"/>
            <stop offset=".271" stop-color="#9F9EA0"/>
            <stop offset=".561" stop-color="#929194"/>
            <stop offset=".859" stop-color="#7C7C80"/>
            <stop offset="1" stop-color="#707073"/>
        </linearGradient>
        <linearGradient id="ztah73z6qd" x1="247.499" y1="315.204" x2="277.144" y2="285.599" gradientUnits="userSpaceOnUse">
            <stop stop-color="#969598"/>
            <stop offset=".34" stop-color="#908F92"/>
            <stop offset=".792" stop-color="#7F7F82"/>
            <stop offset="1" stop-color="#757578"/>
        </linearGradient>
        <linearGradient id="tnp336qcce" x1="249.803" y1="314.791" x2="265.559" y2="346.3" gradientUnits="userSpaceOnUse">
            <stop stop-color="#9E9EA0"/>
            <stop offset=".276" stop-color="#9B9B9D"/>
            <stop offset=".494" stop-color="#919194"/>
            <stop offset=".692" stop-color="#808083"/>
            <stop offset=".878" stop-color="#69696D"/>
            <stop offset="1" stop-color="#55565A"/>
        </linearGradient>
        <clipPath id="tdfjfnybsb">
            <path fill="#fff" transform="translate(232 283)" d="M0 0h81v71H0z"/>
        </clipPath>
        <filter id="miuqm30lda" x="0" y="0" width="546" height="476" filterUnits="userSpaceOnUse" color-interpolation-filters="sRGB">
            <feFlood flood-opacity="0" result="BackgroundImageFix"/>
            <feColorMatrix in="SourceAlpha" values="0 0 0 0 0 0 0 0 0 0 0 0 0 0 0 0 0 0 127 0" result="hardAlpha"/>
            <feMorphology radius="2" operator="dilate" in="SourceAlpha" result="effect1_dropShadow_5085_611"/>
            <feOffset dy="6"/>
            <feGaussianBlur stdDeviation="7.5"/>
            <feColorMatrix values="0 0 0 0 0 0 0 0 0 0 0 0 0 0 0 0 0 0 0.06 0"/>
            <feBlend in2="BackgroundImageFix" result="effect1_dropShadow_5085_611"/>
            <feBlend in="SourceGraphic" in2="effect1_dropShadow_5085_611" result="shape"/>
        </filter>
    </defs>
</svg>
