<svg width="183" height="172" viewBox="0 0 183 172" fill="none" xmlns="http://www.w3.org/2000/svg">
    <g clip-path="url(#tcqlg9r1la)">
        <path d="m151.449 63.506-59.59-58.07c-7.44-7.253-19.42-7.253-26.86 0l-59.59 58.07v92.857h146.04V63.506z" fill="#FF9201"/>
        <rect x="26.144" y="20.848" width="104.571" height="135.516" rx="5.229" fill="#fff"/>
        <g clip-path="url(#7vd0go26rb)" fill="#FE5E44">
            <path fill-rule="evenodd" clip-rule="evenodd" d="M52.286 67.317c5.415 0 9.804-4.389 9.804-9.803 0-5.415-4.39-9.804-9.804-9.804-5.414 0-9.803 4.39-9.803 9.804 0 5.414 4.389 9.803 9.803 9.803zm0 5.883c8.663 0 15.686-7.023 15.686-15.686s-7.023-15.686-15.686-15.686-15.685 7.023-15.685 15.686S43.623 73.2 52.286 73.2z"/>
            <rect x="73.201" y="48.363" width="47.057" height="7.843" rx="3.921"/>
            <rect opacity=".4" x="73.201" y="60.127" width="20.914" height="6.536" rx="3.268"/>
        </g>
        <path d="m151.449 156.361-60.996-47.09c-7.454-5.109-17.322-5.136-24.805-.073-20.96 14.183-60.239 47.163-60.239 47.163h146.04z" fill="#FFDC81"/>
        <path d="M68.038 107.836h-.427L5.41 64.701v91.662s39.28-32.979 60.236-47.162c.77-.521 1.58-.952 2.394-1.365z" fill="#FFCA00"/>
        <path d="M89.248 107.836h-1.28c.847.432 1.686.89 2.483 1.437l60.999 47.09V64.701l-62.202 43.135z" fill="#FFB800"/>
    </g>
    <ellipse cx="146.401" cy="140.726" rx="31.371" ry="31.273" fill="#fff"/>
    <g opacity=".4" fill="#FE5E44">
        <path d="M154.243 131.219c0 4.621-3.762 8.366-8.403 8.366s-8.403-3.745-8.403-8.366c0-4.62 3.762-8.365 8.403-8.365s8.403 3.745 8.403 8.365zM162.086 158.548s-10.571.104-17.366 0c-5.486-.084-14.005 0-14.005 0s2.241-16.732 15.686-16.732c13.444 0 15.685 16.732 15.685 16.732z"/>
    </g>
    <ellipse cx="169.929" cy="117.273" rx="13.071" ry="13.03" fill="#FE5E44"/>
    <path fill-rule="evenodd" clip-rule="evenodd" d="M169.929 111.193c.421 0 .763.341.763.76v4.561h4.575a.76.76 0 1 1 0 1.52h-4.575v4.561a.762.762 0 0 1-1.525 0v-4.561h-4.575a.76.76 0 1 1 0-1.52h4.575v-4.561c0-.419.341-.76.762-.76z" fill="#fff"/>
    <defs>
        <clipPath id="tcqlg9r1la">
            <path fill="#fff" d="M0 0h156.857v156.365H0z"/>
        </clipPath>
        <clipPath id="7vd0go26rb">
            <path fill="#fff" transform="translate(36.6 41.828)" d="M0 0h83.657v31.371H0z"/>
        </clipPath>
    </defs>
</svg>
