<svg width="96" height="92" viewBox="0 0 96 92" fill="none" xmlns="http://www.w3.org/2000/svg">
    <g opacity=".3" fill="#A0AAEC">
        <circle cx="6" cy="6" r="6"/>
        <circle cx="34" cy="6" r="6"/>
        <circle cx="62" cy="6" r="6"/>
        <circle cx="90" cy="6" r="6"/>
        <circle cx="6" cy="26" r="6"/>
        <circle cx="34" cy="26" r="6"/>
        <circle cx="62" cy="26" r="6"/>
        <circle cx="90" cy="26" r="6"/>
        <circle cx="6" cy="46" r="6"/>
        <circle cx="34" cy="46" r="6"/>
        <circle cx="62" cy="46" r="6"/>
        <circle cx="90" cy="46" r="6"/>
        <circle cx="6" cy="66" r="6"/>
        <circle cx="34" cy="66" r="6"/>
        <circle cx="62" cy="66" r="6"/>
        <circle cx="90" cy="66" r="6"/>
        <circle cx="6" cy="86" r="6"/>
        <circle cx="34" cy="86" r="6"/>
        <circle cx="62" cy="86" r="6"/>
        <circle cx="90" cy="86" r="6"/>
    </g>
</svg>
