<svg width="32" height="32" viewBox="0 0 32 32" fill="none" xmlns="http://www.w3.org/2000/svg">
    <g clip-path="url(#yog6ds6yea)" fill="#fff">
        <path opacity=".1" d="M16 32c8.837 0 16-7.163 16-16S24.837 0 16 0 0 7.163 0 16s7.163 16 16 16z"/>
        <path d="M23.799 9.504c-.071-.19-.142-.237-.237-.26-.26-.095-.664.047-.664.047s-14.98 5.357-15.834 5.95c-.19.118-.237.213-.284.284-.143.427.308.616.308.616l3.864 1.257s.142.023.19 0c.876-.546 8.817-5.57 9.267-5.737.072-.023.119 0 .119.048-.166.64-7.064 6.779-7.064 6.779s-.024.024-.047.071l-.38 3.816s-.142 1.162 1.02 0c.83-.83 1.635-1.517 2.015-1.849 1.327.925 2.75 1.92 3.366 2.466.308.26.568.308.782.308.592-.024.758-.664.758-.664s2.726-10.975 2.821-12.444c0-.143.024-.237.024-.332 0-.166 0-.285-.024-.356z"/>
    </g>
    <defs>
        <clipPath id="yog6ds6yea">
            <path fill="#fff" d="M0 0h32v32H0z"/>
        </clipPath>
    </defs>
</svg>
