<svg width="536" height="466" viewBox="0 0 536 466" fill="none" xmlns="http://www.w3.org/2000/svg">
    <g filter="url(#ivb8laa56a)">
        <rect x="12" y="8" width="512" height="442" rx="24" fill="#fff"/>
        <rect x="11.25" y="7.25" width="513.5" height="443.5" rx="24.75" stroke="#EFF1FF" stroke-width="1.5"/>
    </g>
    <rect x="44" y="364" width="448" height="56" rx="8" fill="#04072A"/>
    <path d="M245.811 390.29h-2.125a2.646 2.646 0 0 0-.335-.926 2.508 2.508 0 0 0-.608-.694 2.55 2.55 0 0 0-.83-.426 3.245 3.245 0 0 0-.994-.147c-.633 0-1.193.159-1.682.477-.488.314-.871.776-1.148 1.386-.276.606-.414 1.347-.414 2.222 0 .89.138 1.64.414 2.25.281.606.663 1.064 1.148 1.375.489.307 1.048.46 1.676.46.349 0 .675-.045.978-.136.306-.095.581-.233.823-.415a2.53 2.53 0 0 0 .972-1.58l2.125.012a4.57 4.57 0 0 1-.517 1.557 4.609 4.609 0 0 1-1.028 1.284 4.755 4.755 0 0 1-1.489.863 5.542 5.542 0 0 1-1.892.307c-1.023 0-1.936-.237-2.739-.71-.803-.474-1.435-1.157-1.897-2.051-.463-.894-.694-1.966-.694-3.216 0-1.254.233-2.326.699-3.216.466-.894 1.101-1.578 1.904-2.051.803-.474 1.712-.71 2.727-.71.648 0 1.25.09 1.807.272a4.625 4.625 0 0 1 1.488.801c.436.349.794.777 1.074 1.284.284.504.47 1.08.557 1.728zm5.146 7.88c-.852 0-1.591-.187-2.216-.562a3.822 3.822 0 0 1-1.454-1.574c-.341-.674-.511-1.462-.511-2.364 0-.901.17-1.691.511-2.369a3.811 3.811 0 0 1 1.454-1.579c.625-.375 1.364-.563 2.216-.563.853 0 1.591.188 2.216.563a3.774 3.774 0 0 1 1.449 1.579c.345.678.517 1.468.517 2.369 0 .902-.172 1.69-.517 2.364a3.785 3.785 0 0 1-1.449 1.574c-.625.375-1.363.562-2.216.562zm.012-1.647c.462 0 .848-.127 1.159-.381.31-.258.542-.602.693-1.034.155-.432.233-.913.233-1.443 0-.534-.078-1.017-.233-1.449a2.294 2.294 0 0 0-.693-1.04c-.311-.257-.697-.386-1.159-.386-.474 0-.868.129-1.182.386-.311.258-.544.604-.699 1.04a4.37 4.37 0 0 0-.227 1.449c0 .53.076 1.011.227 1.443.155.432.388.776.699 1.034.314.254.708.381 1.182.381zm7.473-3.637V398h-2.057v-8.727h1.966v1.483h.102c.201-.489.521-.877.96-1.165.444-.288.991-.432 1.642-.432.603 0 1.127.129 1.574.386.451.258.8.631 1.046 1.12.25.488.373 1.081.369 1.778V398h-2.057v-5.239c0-.583-.151-1.039-.454-1.369-.3-.33-.714-.494-1.245-.494-.359 0-.68.079-.96.238a1.663 1.663 0 0 0-.653.676c-.156.296-.233.654-.233 1.074zm11.551-3.613v1.591h-5.017v-1.591h5.017zm-3.779-2.091h2.057v8.193c0 .277.042.489.125.636a.676.676 0 0 0 .341.296c.14.053.296.079.466.079.129 0 .246-.009.352-.028a3.08 3.08 0 0 0 .25-.051l.347 1.608c-.11.038-.267.079-.472.125-.2.045-.447.072-.738.079a3.348 3.348 0 0 1-1.392-.233 2.163 2.163 0 0 1-.983-.806c-.239-.364-.356-.819-.353-1.364v-8.534zM271.213 398v-8.727h2.057V398h-2.057zm1.034-9.966a1.2 1.2 0 0 1-.841-.324 1.042 1.042 0 0 1-.352-.79c0-.31.117-.573.352-.789.235-.22.515-.33.841-.33.33 0 .61.11.841.33.235.216.352.479.352.789 0 .307-.117.571-.352.79a1.186 1.186 0 0 1-.841.324zm4.695 4.852V398h-2.057v-8.727h1.966v1.483h.102c.201-.489.521-.877.96-1.165.444-.288.991-.432 1.642-.432.603 0 1.127.129 1.574.386.451.258.8.631 1.046 1.12.25.488.373 1.081.369 1.778V398h-2.057v-5.239c0-.583-.151-1.039-.454-1.369-.3-.33-.714-.494-1.245-.494-.359 0-.68.079-.96.238a1.663 1.663 0 0 0-.653.676c-.156.296-.233.654-.233 1.074zm12.755 1.444v-5.057h2.057V398h-1.994v-1.551h-.091a2.63 2.63 0 0 1-.972 1.199c-.447.31-.998.466-1.653.466-.572 0-1.078-.127-1.517-.381a2.648 2.648 0 0 1-1.023-1.119c-.246-.493-.369-1.087-.369-1.784v-5.557h2.057v5.238c0 .553.151.993.454 1.319.303.325.701.488 1.193.488.304 0 .597-.074.881-.221a1.8 1.8 0 0 0 .699-.659c.186-.296.278-.665.278-1.108zm7.536 3.84c-.875 0-1.631-.181-2.267-.545a3.686 3.686 0 0 1-1.46-1.557c-.341-.674-.512-1.468-.512-2.38 0-.898.171-1.686.512-2.364a3.858 3.858 0 0 1 1.443-1.591c.617-.383 1.343-.574 2.176-.574.538 0 1.045.087 1.523.261.481.171.905.436 1.272.796.372.36.663.818.875 1.375.213.553.319 1.212.319 1.977v.631h-7.154v-1.387h5.182a2.214 2.214 0 0 0-.256-1.051 1.858 1.858 0 0 0-.698-.733 1.97 1.97 0 0 0-1.035-.267c-.42 0-.789.103-1.108.307a2.114 2.114 0 0 0-.744.796 2.29 2.29 0 0 0-.267 1.074v1.21c0 .507.093.943.278 1.307.186.359.446.636.779.829.333.189.723.284 1.17.284.3 0 .57-.041.813-.125.242-.087.453-.214.631-.381.178-.166.312-.373.403-.619l1.92.216a2.991 2.991 0 0 1-.693 1.33 3.388 3.388 0 0 1-1.295.875c-.527.204-1.129.306-1.807.306z" fill="#fff"/>
    <path d="m275 147-7 7m0 0-7-7m7 7v-18" stroke="#0E144A" stroke-width="2" stroke-linecap="round" stroke-linejoin="round"/>
    <rect x="44" y="38" width="448" height="87" rx="10" fill="#EFF1FF"/>
    <path d="m70.176 89.064 5.536-1.376V105h5.216V82.184L70.176 84.36v4.704zm17.945 12.416-2.816 8.288 3.648.736 4.032-8-4.864-1.024zm13.031-7.68c0-1.045.096-1.995.288-2.848.192-.875.47-1.61.832-2.208.363-.619.79-1.088 1.28-1.408a2.994 2.994 0 0 1 1.696-.512c.619 0 1.174.17 1.664.512.512.32.95.79 1.312 1.408.363.597.64 1.333.832 2.208.192.853.288 1.803.288 2.848s-.096 2.005-.288 2.88c-.192.853-.469 1.59-.832 2.208-.362.597-.8 1.067-1.312 1.408-.49.32-1.045.48-1.664.48-.618 0-1.184-.16-1.696-.48-.49-.341-.917-.81-1.28-1.408-.362-.619-.64-1.355-.832-2.208a13.442 13.442 0 0 1-.288-2.88zm-5.216 0c0 2.432.384 4.512 1.152 6.24.79 1.728 1.888 3.061 3.296 4 1.408.917 3.03 1.376 4.864 1.376 1.92 0 3.574-.459 4.96-1.376 1.387-.939 2.454-2.272 3.2-4 .768-1.728 1.152-3.808 1.152-6.24 0-2.432-.384-4.512-1.152-6.24-.746-1.728-1.813-3.05-3.2-3.968-1.386-.939-3.04-1.408-4.96-1.408-1.834 0-3.456.47-4.864 1.408-1.408.917-2.506 2.24-3.296 3.968-.768 1.728-1.152 3.808-1.152 6.24zm26.404 0c0-1.045.096-1.995.288-2.848.192-.875.469-1.61.832-2.208.362-.619.789-1.088 1.28-1.408a2.992 2.992 0 0 1 1.696-.512c.618 0 1.173.17 1.664.512.512.32.949.79 1.312 1.408.362.597.64 1.333.832 2.208.192.853.288 1.803.288 2.848s-.096 2.005-.288 2.88c-.192.853-.47 1.59-.832 2.208-.363.597-.8 1.067-1.312 1.408-.491.32-1.046.48-1.664.48-.619 0-1.184-.16-1.696-.48-.491-.341-.918-.81-1.28-1.408-.363-.619-.64-1.355-.832-2.208a13.442 13.442 0 0 1-.288-2.88zm-5.216 0c0 2.432.384 4.512 1.152 6.24.789 1.728 1.888 3.061 3.296 4 1.408.917 3.029 1.376 4.864 1.376 1.92 0 3.573-.459 4.96-1.376 1.386-.939 2.453-2.272 3.2-4 .768-1.728 1.152-3.808 1.152-6.24 0-2.432-.384-4.512-1.152-6.24-.747-1.728-1.814-3.05-3.2-3.968-1.387-.939-3.04-1.408-4.96-1.408-1.835 0-3.456.47-4.864 1.408-1.408.917-2.507 2.24-3.296 3.968-.768 1.728-1.152 3.808-1.152 6.24zm26.403 0c0-1.045.096-1.995.288-2.848.192-.875.47-1.61.832-2.208.363-.619.79-1.088 1.28-1.408a2.994 2.994 0 0 1 1.696-.512c.619 0 1.174.17 1.664.512.512.32.95.79 1.312 1.408.363.597.64 1.333.832 2.208.192.853.288 1.803.288 2.848s-.096 2.005-.288 2.88c-.192.853-.469 1.59-.832 2.208-.362.597-.8 1.067-1.312 1.408-.49.32-1.045.48-1.664.48-.618 0-1.184-.16-1.696-.48-.49-.341-.917-.81-1.28-1.408-.362-.619-.64-1.355-.832-2.208a13.442 13.442 0 0 1-.288-2.88zm-5.216 0c0 2.432.384 4.512 1.152 6.24.79 1.728 1.888 3.061 3.296 4 1.408.917 3.03 1.376 4.864 1.376 1.92 0 3.574-.459 4.96-1.376 1.387-.939 2.454-2.272 3.2-4 .768-1.728 1.152-3.808 1.152-6.24 0-2.432-.384-4.512-1.152-6.24-.746-1.728-1.813-3.05-3.2-3.968-1.386-.939-3.04-1.408-4.96-1.408-1.834 0-3.456.47-4.864 1.408-1.408.917-2.506 2.24-3.296 3.968-.768 1.728-1.152 3.808-1.152 6.24z" fill="#0E144A"/>
    <path d="M68.308 55.818h2.083l2.491 4.504h.1l2.49-4.504h2.083l-3.703 6.384V66h-1.84v-3.798l-3.704-6.384zM80.191 66.15c-.746 0-1.392-.164-1.939-.492a3.342 3.342 0 0 1-1.272-1.377c-.299-.59-.448-1.28-.448-2.068 0-.79.15-1.48.448-2.074a3.335 3.335 0 0 1 1.272-1.382c.547-.328 1.194-.492 1.94-.492.745 0 1.391.164 1.938.492.547.328.97.79 1.268 1.383.302.593.452 1.284.452 2.073 0 .788-.15 1.478-.452 2.068a3.31 3.31 0 0 1-1.268 1.377c-.547.328-1.193.492-1.939.492zm.01-1.442c.405 0 .743-.11 1.014-.333.272-.225.474-.527.607-.904a3.71 3.71 0 0 0 .204-1.263c0-.468-.068-.89-.204-1.268a2.007 2.007 0 0 0-.607-.91c-.271-.225-.61-.338-1.014-.338-.414 0-.759.113-1.034.338a2.041 2.041 0 0 0-.611.91 3.81 3.81 0 0 0-.2 1.268c0 .464.067.885.2 1.262.136.378.34.68.611.905.275.222.62.333 1.034.333zm9.544-1.919v-4.424h1.8V66H89.8v-1.357h-.08a2.297 2.297 0 0 1-.85 1.049c-.391.272-.873.407-1.447.407-.5 0-.943-.11-1.327-.333a2.314 2.314 0 0 1-.895-.98c-.215-.43-.323-.95-.323-1.56v-4.862h1.8v4.583c0 .484.132.869.397 1.154.265.285.613.427 1.044.427.266 0 .522-.064.77-.194.25-.129.453-.321.612-.576.163-.259.244-.582.244-.97zm12.159-2.406-1.641.18a1.313 1.313 0 0 0-.244-.468 1.205 1.205 0 0 0-.457-.353 1.667 1.667 0 0 0-.706-.135c-.374 0-.69.082-.945.244-.252.163-.376.373-.373.631a.66.66 0 0 0 .244.542c.17.14.448.254.835.343l1.303.279c.722.156 1.259.403 1.611.74.354.339.533.781.537 1.328-.004.48-.145.905-.423 1.273-.275.364-.658.65-1.148.855-.491.205-1.054.308-1.69.308-.935 0-1.688-.195-2.258-.587-.57-.394-.91-.942-1.019-1.645l1.755-.17c.08.346.249.606.507.781.259.176.595.264 1.01.264.427 0 .77-.088 1.028-.264.262-.175.393-.392.393-.65 0-.22-.084-.4-.253-.543-.166-.142-.425-.252-.776-.328l-1.303-.273c-.732-.153-1.274-.41-1.625-.77-.352-.365-.526-.826-.522-1.383-.004-.47.124-.878.383-1.223.261-.348.624-.616 1.088-.805.468-.193 1.006-.289 1.616-.289.895 0 1.599.19 2.113.572.517.381.837.897.96 1.546zm1.148 8.482v-10.5h1.77v1.262h.104c.093-.185.224-.382.393-.591.169-.212.397-.393.686-.542.288-.153.656-.229 1.103-.229.59 0 1.122.151 1.596.453.478.298.855.74 1.134 1.327.282.583.422 1.3.422 2.148 0 .838-.137 1.55-.412 2.137-.275.587-.65 1.035-1.124 1.343a2.89 2.89 0 0 1-1.611.462c-.437 0-.8-.073-1.088-.219a2.2 2.2 0 0 1-.696-.527 3.372 3.372 0 0 1-.403-.591h-.075v4.067h-1.799zm1.765-6.682c0 .494.069.926.208 1.297.143.372.347.662.612.87.268.206.593.309.974.309.398 0 .731-.106 1-.319.268-.215.47-.508.606-.88.139-.374.209-.8.209-1.277 0-.474-.068-.895-.204-1.263a1.9 1.9 0 0 0-.606-.865c-.269-.209-.604-.313-1.005-.313-.384 0-.711.1-.979.303-.269.202-.472.486-.612.85-.135.365-.203.794-.203 1.288zm9.865 3.967c-.765 0-1.426-.159-1.983-.477a3.228 3.228 0 0 1-1.278-1.362c-.298-.59-.447-1.285-.447-2.083 0-.786.149-1.475.447-2.069a3.389 3.389 0 0 1 1.263-1.392c.54-.334 1.175-.502 1.904-.502.471 0 .915.076 1.332.229.421.149.792.381 1.114.696.325.315.58.716.766 1.203.185.484.278 1.06.278 1.73v.552h-6.259v-1.213h4.534a1.942 1.942 0 0 0-.224-.92 1.632 1.632 0 0 0-.611-.641 1.722 1.722 0 0 0-.905-.234c-.368 0-.691.09-.97.269a1.853 1.853 0 0 0-.651.696c-.152.285-.23.598-.234.94v1.058c0 .444.082.826.244 1.144.162.315.389.556.681.726.292.165.633.248 1.024.248.262 0 .499-.036.711-.11.212-.075.396-.186.552-.332a1.39 1.39 0 0 0 .353-.542l1.68.189a2.622 2.622 0 0 1-.606 1.163 2.957 2.957 0 0 1-1.134.766c-.46.179-.987.268-1.581.268zm6.218-4.623V66h-1.8v-7.636h1.721v1.297h.089c.176-.427.456-.767.84-1.019.388-.252.867-.378 1.437-.378.527 0 .986.113 1.377.338.395.226.7.552.915.98.219.427.327.946.323 1.556V66h-1.8v-4.584c0-.51-.132-.91-.397-1.198-.262-.288-.625-.433-1.089-.433-.315 0-.595.07-.84.21a1.447 1.447 0 0 0-.572.59c-.136.26-.204.573-.204.94zm9.066 4.608a2.89 2.89 0 0 1-1.611-.462c-.474-.308-.849-.756-1.124-1.343-.275-.586-.412-1.299-.412-2.137 0-.849.139-1.565.417-2.148.282-.587.661-1.03 1.139-1.327a2.925 2.925 0 0 1 1.596-.453c.447 0 .815.076 1.103.229.289.149.517.33.686.542.169.209.3.406.393.591h.075v-3.808h1.804V66h-1.77v-1.203h-.109a3.071 3.071 0 0 1-.403.591 2.2 2.2 0 0 1-.696.527c-.288.146-.651.22-1.088.22zm.502-1.476c.381 0 .706-.103.974-.309.269-.208.472-.498.612-.87.139-.37.208-.803.208-1.297 0-.494-.069-.923-.208-1.288-.136-.364-.338-.648-.607-.85-.265-.202-.592-.303-.979-.303-.401 0-.736.104-1.005.313a1.9 1.9 0 0 0-.606.865 3.628 3.628 0 0 0-.204 1.263c0 .477.068.903.204 1.277.139.372.343.665.611.88.272.213.605.319 1 .319z" fill="#394392"/>
    <rect x="389.5" y="80.5" width="78" height="32" rx="9.5" fill="#fff"/>
    <path d="M409.423 91.818h1.844v6.652c0 .73-.172 1.37-.517 1.924a3.491 3.491 0 0 1-1.442 1.298c-.62.308-1.344.462-2.172.462-.832 0-1.558-.154-2.178-.462a3.497 3.497 0 0 1-1.442-1.298c-.341-.553-.512-1.195-.512-1.924v-6.652h1.845v6.498c0 .424.093.802.278 1.134.189.331.454.591.796.78.341.186.745.279 1.213.279.467 0 .871-.093 1.213-.279.344-.189.61-.449.795-.78.186-.332.279-.71.279-1.134v-6.498zm8.882 2.8a1.357 1.357 0 0 0-.586-1.015c-.342-.242-.786-.363-1.333-.363-.384 0-.714.058-.989.174a1.468 1.468 0 0 0-.632.472c-.145.2-.22.426-.223.681 0 .213.048.397.144.552.099.156.234.289.403.398.169.106.356.196.561.269.206.072.413.134.622.183l.954.24c.385.089.754.21 1.109.362.358.153.678.345.96.577.285.232.51.512.676.84.165.328.248.713.248 1.153 0 .597-.152 1.122-.457 1.576-.305.451-.746.804-1.323 1.059-.573.252-1.267.378-2.083.378-.792 0-1.48-.123-2.063-.368-.58-.245-1.034-.603-1.362-1.074-.325-.47-.501-1.044-.527-1.72h1.815c.026.355.135.65.328.885.192.235.442.411.75.527.312.116.66.174 1.044.174.401 0 .753-.06 1.054-.179.305-.122.544-.292.716-.507a1.22 1.22 0 0 0 .264-.766.97.97 0 0 0-.234-.656 1.707 1.707 0 0 0-.641-.437 6.181 6.181 0 0 0-.955-.319l-1.158-.298c-.839-.215-1.502-.542-1.989-.98-.484-.44-.726-1.025-.726-1.754 0-.6.163-1.125.488-1.576.328-.45.774-.8 1.337-1.05.563-.251 1.201-.377 1.914-.377.723 0 1.356.126 1.899.378.547.248.976.595 1.288 1.039.311.44.472.948.482 1.521h-1.775zm6.509 7.382h-3.45V91.818h3.52c1.01 0 1.879.204 2.605.612a4.087 4.087 0 0 1 1.68 1.745c.391.759.587 1.667.587 2.724 0 1.06-.198 1.972-.592 2.734a4.082 4.082 0 0 1-1.695 1.755c-.736.408-1.621.612-2.655.612zm-1.606-1.596h1.516c.71 0 1.301-.129 1.775-.388.474-.262.831-.65 1.069-1.168.239-.52.358-1.17.358-1.949 0-.779-.119-1.425-.358-1.939a2.435 2.435 0 0 0-1.059-1.158c-.464-.259-1.04-.388-1.73-.388h-1.571v6.99z" fill="#0E144A"/>
    <path d="M450.834 94 445 99.833 439.167 94" stroke="#0E144A" stroke-width="2" stroke-linecap="round" stroke-linejoin="round"/>
    <rect x="389.5" y="80.5" width="78" height="32" rx="9.5" stroke="#6772C8"/>
    <rect x="44" y="165" width="448" height="87" rx="10" fill="#FEEAD9"/>
    <path d="m70.176 216.064 5.536-1.376V232h5.216v-22.816l-10.752 2.176v4.704zm17.945 12.416-2.816 8.288 3.648.736 4.032-8-4.864-1.024zm13.031-7.68c0-1.045.096-1.995.288-2.848.192-.875.47-1.611.832-2.208.363-.619.79-1.088 1.28-1.408a2.997 2.997 0 0 1 1.696-.512c.619 0 1.174.171 1.664.512.512.32.95.789 1.312 1.408.363.597.64 1.333.832 2.208.192.853.288 1.803.288 2.848s-.096 2.005-.288 2.88c-.192.853-.469 1.589-.832 2.208-.362.597-.8 1.067-1.312 1.408-.49.32-1.045.48-1.664.48-.618 0-1.184-.16-1.696-.48-.49-.341-.917-.811-1.28-1.408-.362-.619-.64-1.355-.832-2.208a13.446 13.446 0 0 1-.288-2.88zm-5.216 0c0 2.432.384 4.512 1.152 6.24.79 1.728 1.888 3.061 3.296 4 1.408.917 3.03 1.376 4.864 1.376 1.92 0 3.574-.459 4.96-1.376 1.387-.939 2.454-2.272 3.2-4 .768-1.728 1.152-3.808 1.152-6.24 0-2.432-.384-4.512-1.152-6.24-.746-1.728-1.813-3.051-3.2-3.968-1.386-.939-3.04-1.408-4.96-1.408-1.834 0-3.456.469-4.864 1.408-1.408.917-2.506 2.24-3.296 3.968-.768 1.728-1.152 3.808-1.152 6.24zm26.404 0c0-1.045.096-1.995.288-2.848.192-.875.469-1.611.832-2.208.362-.619.789-1.088 1.28-1.408a2.994 2.994 0 0 1 1.696-.512 2.85 2.85 0 0 1 1.664.512c.512.32.949.789 1.312 1.408.362.597.64 1.333.832 2.208.192.853.288 1.803.288 2.848s-.096 2.005-.288 2.88c-.192.853-.47 1.589-.832 2.208-.363.597-.8 1.067-1.312 1.408-.491.32-1.046.48-1.664.48-.619 0-1.184-.16-1.696-.48-.491-.341-.918-.811-1.28-1.408-.363-.619-.64-1.355-.832-2.208a13.446 13.446 0 0 1-.288-2.88zm-5.216 0c0 2.432.384 4.512 1.152 6.24.789 1.728 1.888 3.061 3.296 4 1.408.917 3.029 1.376 4.864 1.376 1.92 0 3.573-.459 4.96-1.376 1.386-.939 2.453-2.272 3.2-4 .768-1.728 1.152-3.808 1.152-6.24 0-2.432-.384-4.512-1.152-6.24-.747-1.728-1.814-3.051-3.2-3.968-1.387-.939-3.04-1.408-4.96-1.408-1.835 0-3.456.469-4.864 1.408-1.408.917-2.507 2.24-3.296 3.968-.768 1.728-1.152 3.808-1.152 6.24zm26.403 0c0-1.045.096-1.995.288-2.848.192-.875.47-1.611.832-2.208.363-.619.79-1.088 1.28-1.408a2.997 2.997 0 0 1 1.696-.512c.619 0 1.174.171 1.664.512.512.32.95.789 1.312 1.408.363.597.64 1.333.832 2.208.192.853.288 1.803.288 2.848s-.096 2.005-.288 2.88c-.192.853-.469 1.589-.832 2.208-.362.597-.8 1.067-1.312 1.408-.49.32-1.045.48-1.664.48-.618 0-1.184-.16-1.696-.48-.49-.341-.917-.811-1.28-1.408-.362-.619-.64-1.355-.832-2.208a13.446 13.446 0 0 1-.288-2.88zm-5.216 0c0 2.432.384 4.512 1.152 6.24.79 1.728 1.888 3.061 3.296 4 1.408.917 3.03 1.376 4.864 1.376 1.92 0 3.574-.459 4.96-1.376 1.387-.939 2.454-2.272 3.2-4 .768-1.728 1.152-3.808 1.152-6.24 0-2.432-.384-4.512-1.152-6.24-.746-1.728-1.813-3.051-3.2-3.968-1.386-.939-3.04-1.408-4.96-1.408-1.834 0-3.456.469-4.864 1.408-1.408.917-2.506 2.24-3.296 3.968-.768 1.728-1.152 3.808-1.152 6.24z" fill="#0E144A"/>
    <path d="M68.308 182.818h2.083l2.491 4.504h.1l2.49-4.504h2.083l-3.703 6.384V193h-1.84v-3.798l-3.704-6.384zm11.883 10.331c-.746 0-1.392-.164-1.939-.492a3.34 3.34 0 0 1-1.272-1.377c-.299-.59-.448-1.28-.448-2.068 0-.789.15-1.48.448-2.074a3.342 3.342 0 0 1 1.272-1.382c.547-.328 1.194-.492 1.94-.492.745 0 1.391.164 1.938.492.547.329.97.789 1.268 1.382.302.594.452 1.285.452 2.074 0 .788-.15 1.478-.452 2.068a3.308 3.308 0 0 1-1.268 1.377c-.547.328-1.193.492-1.939.492zm.01-1.442c.405 0 .743-.111 1.014-.333.272-.225.474-.527.607-.905.136-.377.204-.798.204-1.262 0-.468-.068-.89-.204-1.268a2.006 2.006 0 0 0-.607-.91c-.271-.225-.61-.338-1.014-.338-.414 0-.759.113-1.034.338a2.04 2.04 0 0 0-.611.91 3.81 3.81 0 0 0-.2 1.268c0 .464.067.885.2 1.262.136.378.34.68.611.905.275.222.62.333 1.034.333zm9.544-1.919v-4.424h1.8V193H89.8v-1.357h-.08a2.3 2.3 0 0 1-.85 1.049c-.391.272-.873.407-1.447.407-.5 0-.943-.111-1.327-.333a2.315 2.315 0 0 1-.895-.979c-.215-.431-.323-.951-.323-1.561v-4.862h1.8v4.583c0 .484.132.869.397 1.154.265.285.613.427 1.044.427.266 0 .522-.064.77-.193.25-.13.453-.322.612-.577.163-.259.244-.582.244-.97zM95.868 193v-7.636h1.745v1.272h.08c.139-.44.377-.78.716-1.019a1.97 1.97 0 0 1 1.168-.363c.1 0 .21.005.333.015.126.007.23.018.313.035v1.656a1.851 1.851 0 0 0-.363-.07 3.371 3.371 0 0 0-.472-.035c-.328 0-.623.071-.885.214a1.561 1.561 0 0 0-.612.582c-.149.248-.223.535-.223.86V193h-1.8zm8.117.149c-.766 0-1.427-.159-1.984-.477a3.238 3.238 0 0 1-1.277-1.362c-.299-.59-.448-1.285-.448-2.083 0-.786.149-1.475.448-2.069a3.382 3.382 0 0 1 1.263-1.392c.54-.334 1.174-.502 1.904-.502.47 0 .914.076 1.332.229.421.149.792.381 1.114.696.324.315.58.716.765 1.203.186.484.279 1.061.279 1.73v.552h-6.26v-1.213h4.535a1.944 1.944 0 0 0-.224-.92 1.627 1.627 0 0 0-.612-.641 1.716 1.716 0 0 0-.905-.234c-.367 0-.691.09-.969.269a1.844 1.844 0 0 0-.651.696 1.992 1.992 0 0 0-.234.939v1.059c0 .444.081.826.244 1.144.162.315.389.557.681.726.291.165.633.248 1.024.248.262 0 .499-.036.711-.109.212-.076.396-.187.552-.333.156-.146.273-.327.353-.542l1.68.189a2.618 2.618 0 0 1-.606 1.163 2.967 2.967 0 0 1-1.134.766c-.461.179-.988.268-1.581.268zm7.749 0c-.762 0-1.417-.167-1.964-.502a3.356 3.356 0 0 1-1.257-1.387c-.292-.593-.438-1.276-.438-2.048 0-.776.149-1.46.448-2.054a3.346 3.346 0 0 1 1.262-1.392c.547-.334 1.194-.502 1.939-.502.62 0 1.169.115 1.646.343.48.226.863.545 1.148.96.285.411.448.891.488 1.442h-1.721a1.64 1.64 0 0 0-.497-.92c-.258-.249-.605-.373-1.039-.373-.368 0-.691.099-.969.298-.279.196-.496.477-.652.845-.152.368-.228.809-.228 1.323 0 .52.076.968.228 1.342.153.371.367.658.642.86.278.199.605.299.979.299.265 0 .502-.05.711-.15.212-.102.389-.25.532-.442.143-.192.24-.426.293-.701h1.721a3.014 3.014 0 0 1-.478 1.437 2.822 2.822 0 0 1-1.123.974c-.474.232-1.031.348-1.671.348zm7.63 0c-.766 0-1.427-.159-1.984-.477a3.238 3.238 0 0 1-1.277-1.362c-.299-.59-.448-1.285-.448-2.083 0-.786.149-1.475.448-2.069a3.386 3.386 0 0 1 1.262-1.392c.541-.334 1.175-.502 1.905-.502.47 0 .914.076 1.332.229.421.149.792.381 1.114.696.324.315.58.716.765 1.203.186.484.279 1.061.279 1.73v.552h-6.26v-1.213h4.534a1.932 1.932 0 0 0-.223-.92 1.627 1.627 0 0 0-.612-.641 1.716 1.716 0 0 0-.905-.234c-.368 0-.691.09-.969.269a1.837 1.837 0 0 0-.651.696 1.992 1.992 0 0 0-.234.939v1.059c0 .444.081.826.244 1.144.162.315.389.557.681.726.291.165.633.248 1.024.248.262 0 .499-.036.711-.109.212-.076.396-.187.552-.333.155-.146.273-.327.353-.542l1.68.189a2.61 2.61 0 0 1-.607 1.163 2.963 2.963 0 0 1-1.133.766c-.461.179-.988.268-1.581.268zm4.418-.149v-7.636h1.8V193h-1.8zm.905-8.72c-.285 0-.53-.095-.736-.284a.914.914 0 0 1-.308-.691c0-.271.103-.502.308-.691.206-.192.451-.288.736-.288.288 0 .534.096.736.288.205.189.308.42.308.691a.914.914 0 0 1-.308.691 1.04 1.04 0 0 1-.736.284zm9.067 1.084-2.72 7.636h-1.989l-2.719-7.636h1.919l1.755 5.672h.08l1.759-5.672h1.915zm3.866 7.785c-.766 0-1.427-.159-1.984-.477a3.247 3.247 0 0 1-1.278-1.362c-.298-.59-.447-1.285-.447-2.083 0-.786.149-1.475.447-2.069a3.395 3.395 0 0 1 1.263-1.392c.541-.334 1.175-.502 1.904-.502.471 0 .915.076 1.333.229a3 3 0 0 1 1.113.696c.325.315.58.716.766 1.203.186.484.278 1.061.278 1.73v.552h-6.259v-1.213h4.534a1.943 1.943 0 0 0-.223-.92 1.627 1.627 0 0 0-.612-.641 1.716 1.716 0 0 0-.905-.234c-.368 0-.691.09-.969.269a1.829 1.829 0 0 0-.651.696 1.992 1.992 0 0 0-.234.939v1.059c0 .444.081.826.243 1.144.163.315.39.557.682.726.291.165.633.248 1.024.248.262 0 .499-.036.711-.109.212-.076.396-.187.551-.333.156-.146.274-.327.353-.542l1.681.189a2.61 2.61 0 0 1-.607 1.163 2.963 2.963 0 0 1-1.133.766c-.461.179-.988.268-1.581.268z" fill="#FE5E44"/>
    <rect x="388.5" y="207.5" width="79" height="32" rx="9.5" fill="#fff"/>
    <path d="m403.396 221.364 1.542 2.819 1.566-2.819h1.904l-2.302 3.818 2.341 3.818h-1.894l-1.615-2.749-1.601 2.749h-1.909l2.326-3.818-2.267-3.818h1.909zM412.83 229h-3.451v-10.182h3.52c1.011 0 1.879.204 2.605.612.729.404 1.29.986 1.681 1.745.391.759.586 1.667.586 2.724 0 1.061-.197 1.972-.591 2.735a4.086 4.086 0 0 1-1.696 1.754c-.735.408-1.62.612-2.654.612zm-1.606-1.596h1.516c.709 0 1.301-.129 1.775-.388.474-.262.83-.651 1.069-1.168.238-.52.358-1.17.358-1.949 0-.779-.12-1.425-.358-1.939a2.443 2.443 0 0 0-1.059-1.158c-.464-.259-1.041-.388-1.73-.388h-1.571v6.99zm8.56 1.596h-1.968l3.584-10.182h2.277l3.59 10.182h-1.969l-2.72-8.094h-.079L419.784 229zm.065-3.992h5.369v1.481h-5.369v-1.481zm10.103-6.19V229h-1.844v-10.182h1.844z" fill="#0E144A"/>
    <path d="M450.834 221 445 226.833 439.167 221" stroke="#0E144A" stroke-width="2" stroke-linecap="round" stroke-linejoin="round"/>
    <rect x="388.5" y="207.5" width="79" height="32" rx="9.5" stroke="#FE9172"/>
    <rect x="44.5" y="285.5" width="447" height="45" rx="9.5" stroke="#A0AAEC" stroke-linecap="round" stroke-linejoin="round" stroke-dasharray="8 8"/>
    <g clip-path="url(#4cxoyf13pb)">
        <path d="M203.783 292h24.434a3.783 3.783 0 0 1 3.783 3.783v24.434a3.783 3.783 0 0 1-3.783 3.783h-24.434a3.783 3.783 0 0 1-3.783-3.783v-24.434a3.783 3.783 0 0 1 3.783-3.783z" fill="#3396CD"/>
        <path d="M223.886 298.512c.688 1.135.997 2.305.997 3.783 0 4.713-4.023 10.834-7.288 15.131h-7.456l-2.99-17.882 6.531-.62 1.588 12.724c1.476-2.408 3.302-6.191 3.302-8.768 0-1.412-.242-2.372-.621-3.163l5.937-1.205z" fill="#fff"/>
    </g>
    <path d="M271.848 301.617c.312-2.032 0-3.387-1.09-4.637-1.195-1.407-3.377-1.98-6.182-1.98h-8.051c-.572 0-1.039.417-1.143.99l-3.376 21.363a.684.684 0 0 0 .675.781h4.987l-.364 2.189c-.052.364.208.677.623.677h4.208c.519 0 .935-.365.987-.834l.883-5.523c.052-.469.519-.833.987-.833h.623c4.052 0 7.272-1.668 8.207-6.461.364-1.98.208-3.7-.831-4.846-.311-.365-.675-.625-1.143-.886z" fill="#009CDE"/>
    <path d="M271.848 301.617c.312-2.032 0-3.387-1.09-4.637-1.195-1.407-3.377-1.98-6.182-1.98h-8.051c-.572 0-1.039.417-1.143.99l-3.376 21.363a.684.684 0 0 0 .675.781h4.987l1.194-7.711c.104-.573.572-.99 1.143-.99h2.39c4.675 0 8.311-1.876 9.35-7.399.052-.104.052-.26.103-.417z" fill="#012169"/>
    <path d="M260.265 301.669c.052-.364.519-.833.987-.833h6.337c.727 0 1.454.052 2.078.156.571.104 1.61.365 2.13.677.311-2.032 0-3.386-1.091-4.637-1.143-1.459-3.325-2.032-6.13-2.032h-8.051c-.572 0-1.039.417-1.143.99l-3.376 21.363a.684.684 0 0 0 .675.781h4.987l2.597-16.465z" fill="#003087"/>
    <path d="M297.928 313.398v-6.88h1.561v6.88h-1.561zm-2.66-2.659v-1.561h6.88v1.561h-6.88zm8.577 3.261v-7.636h1.72v1.297h.089c.159-.437.423-.779.791-1.024.368-.249.807-.373 1.317-.373.517 0 .953.126 1.308.378.358.249.61.588.755 1.019h.08c.169-.424.454-.762.855-1.014.404-.255.883-.383 1.437-.383.703 0 1.276.222 1.72.666.444.445.666 1.092.666 1.944V314h-1.804v-4.847c0-.474-.126-.821-.378-1.039a1.35 1.35 0 0 0-.925-.333c-.434 0-.774.135-1.019.407-.242.269-.363.618-.363 1.049V314h-1.765v-4.922c0-.394-.119-.709-.358-.944-.235-.236-.544-.353-.925-.353a1.31 1.31 0 0 0-.706.198c-.212.13-.381.314-.507.552a1.727 1.727 0 0 0-.189.826V314h-1.799zm15.395.149c-.746 0-1.392-.164-1.939-.492a3.343 3.343 0 0 1-1.273-1.377c-.298-.59-.447-1.28-.447-2.068 0-.789.149-1.48.447-2.074a3.344 3.344 0 0 1 1.273-1.382c.547-.328 1.193-.492 1.939-.492s1.392.164 1.939.492c.547.329.969.789 1.268 1.382.301.594.452 1.285.452 2.074 0 .788-.151 1.478-.452 2.068a3.312 3.312 0 0 1-1.268 1.377c-.547.328-1.193.492-1.939.492zm.01-1.442c.404 0 .742-.111 1.014-.333.272-.225.474-.527.607-.905a3.7 3.7 0 0 0 .204-1.262c0-.468-.068-.89-.204-1.268a2.008 2.008 0 0 0-.607-.91c-.272-.225-.61-.338-1.014-.338-.414 0-.759.113-1.034.338a2.04 2.04 0 0 0-.612.91c-.132.378-.198.8-.198 1.268 0 .464.066.885.198 1.262.136.378.34.68.612.905.275.222.62.333 1.034.333zm4.677 1.293v-7.636h1.745v1.272h.079c.139-.44.378-.78.716-1.019a1.972 1.972 0 0 1 1.168-.363c.1 0 .211.005.334.015.126.007.23.018.313.035v1.656a1.85 1.85 0 0 0-.363-.07 3.378 3.378 0 0 0-.472-.035 1.81 1.81 0 0 0-.885.214 1.558 1.558 0 0 0-.612.582 1.638 1.638 0 0 0-.224.86V314h-1.799zm8.117.149c-.766 0-1.427-.159-1.984-.477a3.247 3.247 0 0 1-1.278-1.362c-.298-.59-.447-1.285-.447-2.083 0-.786.149-1.475.447-2.069a3.395 3.395 0 0 1 1.263-1.392c.54-.334 1.175-.502 1.904-.502.471 0 .915.076 1.333.229a3 3 0 0 1 1.113.696c.325.315.58.716.766 1.203.185.484.278 1.061.278 1.73v.552h-6.259v-1.213h4.534a1.932 1.932 0 0 0-.224-.92 1.618 1.618 0 0 0-.611-.641 1.718 1.718 0 0 0-.905-.234c-.368 0-.691.09-.969.269a1.84 1.84 0 0 0-.652.696c-.152.285-.23.598-.233.939v1.059c0 .444.081.826.243 1.144.163.315.39.557.681.726.292.165.633.248 1.025.248.261 0 .498-.036.71-.109.213-.076.397-.187.552-.333.156-.146.274-.327.353-.542l1.681.189a2.62 2.62 0 0 1-.607 1.163 2.97 2.97 0 0 1-1.133.766c-.461.179-.988.268-1.581.268z" fill="#0E144A"/>
    <defs>
        <clipPath id="4cxoyf13pb">
            <path fill="#fff" transform="translate(200 292)" d="M0 0h32v32H0z"/>
        </clipPath>
        <filter id="ivb8laa56a" x=".5" y=".5" width="535" height="465" filterUnits="userSpaceOnUse" color-interpolation-filters="sRGB">
            <feFlood flood-opacity="0" result="BackgroundImageFix"/>
            <feColorMatrix in="SourceAlpha" values="0 0 0 0 0 0 0 0 0 0 0 0 0 0 0 0 0 0 127 0" result="hardAlpha"/>
            <feOffset dy="4"/>
            <feGaussianBlur stdDeviation="5"/>
            <feColorMatrix values="0 0 0 0 0 0 0 0 0 0 0 0 0 0 0 0 0 0 0.05 0"/>
            <feBlend in2="BackgroundImageFix" result="effect1_dropShadow_312_3379"/>
            <feBlend in="SourceGraphic" in2="effect1_dropShadow_312_3379" result="shape"/>
        </filter>
    </defs>
</svg>
