<svg width="32" height="32" viewBox="0 0 32 32" fill="none" xmlns="http://www.w3.org/2000/svg">
    <g clip-path="url(#x67q87ttka)" fill="#fff">
        <path opacity=".1" d="M16 32c8.837 0 16-7.163 16-16S24.837 0 16 0 0 7.163 0 16s7.163 16 16 16z"/>
        <path d="M12.776 25.22c7.823 0 12.09-6.47 12.09-12.089 0-.19 0-.355-.024-.545a8.485 8.485 0 0 0 2.11-2.204 8.458 8.458 0 0 1-2.442.663A4.297 4.297 0 0 0 26.382 8.7c-.83.498-1.73.83-2.702 1.043a4.24 4.24 0 0 0-3.105-1.351 4.239 4.239 0 0 0-4.243 4.243c0 .331.047.663.118.971-3.531-.165-6.66-1.872-8.746-4.432a4.251 4.251 0 0 0 1.327 5.665 4.375 4.375 0 0 1-1.92-.521v.047c0 2.062 1.47 3.769 3.413 4.172a4.351 4.351 0 0 1-1.114.142c-.284 0-.545-.024-.806-.071.546 1.683 2.11 2.916 3.959 2.94a8.549 8.549 0 0 1-5.286 1.824c-.332 0-.687-.023-1.02-.047a12.144 12.144 0 0 0 6.52 1.896z"/>
    </g>
    <defs>
        <clipPath id="x67q87ttka">
            <path fill="#fff" d="M0 0h32v32H0z"/>
        </clipPath>
    </defs>
</svg>
