<svg width="128" height="41" viewBox="0 0 128 41" fill="none" xmlns="http://www.w3.org/2000/svg">
    <path d="M37.585 14.054v9.25c0 .866.138 1.62.413 2.263a4.407 4.407 0 0 0 1.181 1.594 5.426 5.426 0 0 0 1.771.925c.67.21 1.391.315 2.165.315s1.496-.105 2.165-.315a5.173 5.173 0 0 0 1.771-.925c.512-.42.905-.951 1.18-1.594.29-.643.434-1.397.434-2.263v-9.25h-3.326v9.013c0 .696-.184 1.26-.551 1.693-.367.433-.925.65-1.673.65-.735 0-1.286-.217-1.653-.65-.367-.433-.551-.997-.551-1.693v-9.013h-3.326zM61.382 14.054v7.754l-9.506-8.443V27.83h3.188v-7.754l9.525 8.443V14.054h-3.207zM67.894 14.054V27.83h3.385V14.054h-3.385zM74.592 14.054V27.83h3.326V14.054h-3.326zm2.086 2.736h2.696c.67 0 1.194.15 1.575.452.38.302.57.741.57 1.319 0 .564-.19.997-.57 1.299-.381.301-.906.452-1.575.452h-2.696v2.736h2.696c1.168 0 2.145-.177 2.932-.532.8-.367 1.404-.885 1.81-1.554.408-.683.611-1.483.611-2.401 0-.945-.203-1.752-.61-2.42-.407-.67-1.01-1.182-1.81-1.536-.788-.367-1.765-.551-2.933-.551h-2.696v2.736zM89.451 27.83h6.947v-2.735h-6.947v2.735zm0-11.04h6.947v-2.736h-6.947v2.736zm0 5.136h6.554V19.25H89.45v2.676zm-2.204-7.872V27.83h3.188V14.054h-3.188zM101.703 27.83h6.947v-2.735h-6.947v2.735zm0-11.04h6.947v-2.736h-6.947v2.736zm0 5.136h6.553V19.25h-6.553v2.676zm-2.204-7.872V27.83h3.188V14.054h-3.188zM115.194 21.591l3.857 6.239h3.897l-4.31-6.238h-3.444zm-3.444-7.537V27.83h3.326V14.054h-3.326zm2.086 2.814h2.696c.446 0 .827.072 1.142.217.328.144.577.354.748.63.17.262.255.583.255.964 0 .38-.085.708-.255.984-.171.262-.42.466-.748.61-.315.131-.696.197-1.142.197h-2.696v2.578h2.933c1.18 0 2.164-.19 2.952-.57.787-.381 1.384-.906 1.79-1.575.407-.683.61-1.463.61-2.342 0-.892-.203-1.673-.61-2.342-.406-.682-1.003-1.214-1.79-1.594-.788-.38-1.772-.571-2.952-.571h-2.933v2.814z" fill="#fff"/>
    <g clip-path="url(#otn2ehv11a)" fill="#FE5E44">
        <path d="M9.508 19.208a3.234 3.234 0 0 1-2.333-.906 3.205 3.205 0 0 1-.721-3.546A3.223 3.223 0 0 1 9.509 12.8a3.175 3.175 0 0 1 2.73 1.622c-.087-.02.044.072 0 0l1.322 1.488a6.795 6.795 0 0 0 4.634 1.843c2.341 0 4.721-1.369 5.966-3.336.075-.029-.044.075 0 0a3.18 3.18 0 0 1 2.73-1.62 3.233 3.233 0 0 1 2.335.905A3.206 3.206 0 0 1 30.2 16a3.191 3.191 0 0 1-.974 2.298 3.22 3.22 0 0 1-2.334.906 6.817 6.817 0 0 0-4.665 1.878l-.64.654a9.29 9.29 0 0 0-.639.819 3.099 3.099 0 0 1-2.328 1.618 3.122 3.122 0 0 1-3.17-1.618c-.029-.05.053.026 0 0a7.176 7.176 0 0 0-2.547-2.42 7.212 7.212 0 0 0-3.395-.926zm17.394 3.587c-.637 0-1.26.188-1.79.54a3.208 3.208 0 0 0-1.185 1.439 3.192 3.192 0 0 0 .698 3.492 3.234 3.234 0 0 0 3.509.696 3.215 3.215 0 0 0 1.445-1.181 3.195 3.195 0 0 0-.401-4.046 3.23 3.23 0 0 0-2.276-.94zM12.728 26c0-.634-.189-1.253-.542-1.78a3.217 3.217 0 0 0-3.305-1.363 3.234 3.234 0 0 0-1.65.877 3.192 3.192 0 0 0 .49 4.932 3.232 3.232 0 0 0 4.065-.4A3.198 3.198 0 0 0 12.73 26h-.002zm5.477 8.202c.637 0 1.26-.188 1.789-.54.529-.352.942-.852 1.186-1.439a3.192 3.192 0 0 0-.698-3.493 3.234 3.234 0 0 0-3.51-.695 3.216 3.216 0 0 0-1.445 1.18 3.194 3.194 0 0 0 .402 4.047 3.23 3.23 0 0 0 2.276.94z"/>
        <path d="M21.425 11.006c0-.635-.189-1.254-.543-1.781a3.217 3.217 0 0 0-1.445-1.18 3.234 3.234 0 0 0-3.509.694 3.2 3.2 0 0 0 .488 4.932 3.23 3.23 0 0 0 4.762-1.439c.162-.388.246-.805.247-1.226z"/>
    </g>
    <defs>
        <clipPath id="otn2ehv11a">
            <path fill="#fff" transform="rotate(90 12 19)" d="M0 0h28v25.6H0z"/>
        </clipPath>
    </defs>
</svg>
